<svg width="92" height="66" viewBox="0 0 92 66" fill="none" xmlns="http://www.w3.org/2000/svg">
<path d="M18.0215 28.0606V20.2549H21.393C21.7483 20.2549 22.071 20.2917 22.361 20.3652C22.6583 20.4313 22.9157 20.5416 23.1332 20.6959C23.3507 20.8503 23.5175 21.0561 23.6335 21.3133C23.7568 21.5706 23.8184 21.8977 23.8184 22.2946C23.8184 22.618 23.7459 22.9193 23.6009 23.1986C23.4559 23.4779 23.242 23.691 22.9592 23.838C23.3362 23.963 23.6335 24.1798 23.851 24.4885C24.0686 24.7899 24.1773 25.1904 24.1773 25.6902C24.1773 26.1386 24.0939 26.5171 23.9272 26.8258C23.7604 27.1271 23.532 27.3697 23.242 27.5534C22.952 27.7372 22.6148 27.8695 22.2305 27.9503C21.8462 28.0238 21.4366 28.0606 21.0015 28.0606H18.0215ZM19.5767 26.6053H21.1864C21.3822 26.6053 21.5634 26.5906 21.7302 26.5612C21.9042 26.5318 22.0565 26.484 22.187 26.4179C22.3175 26.3444 22.419 26.2451 22.4915 26.1202C22.5713 25.9952 22.6112 25.8409 22.6112 25.6572C22.6112 25.4881 22.5785 25.3485 22.5133 25.2382C22.4553 25.1206 22.3683 25.0251 22.2523 24.9516C22.1435 24.8781 22.013 24.8266 21.8607 24.7972C21.7157 24.7678 21.5526 24.7531 21.3713 24.7531H19.5767V26.6053ZM19.5767 23.4411H21.0015C21.1973 23.4411 21.3749 23.4228 21.5344 23.386C21.694 23.3493 21.8281 23.2905 21.9369 23.2096C22.0456 23.1288 22.129 23.0295 22.187 22.9119C22.245 22.787 22.274 22.6437 22.274 22.482C22.2813 22.2615 22.2341 22.0998 22.1326 21.9969C22.0311 21.8866 21.8933 21.8131 21.7193 21.7764C21.5453 21.7323 21.3495 21.7102 21.132 21.7102H19.5767V23.4411Z" fill="white"/>
<path d="M29.0363 28.1488C28.2822 28.1488 27.6623 28.0055 27.1765 27.7188C26.698 27.4322 26.3427 27.0206 26.1106 26.484C25.8859 25.9475 25.7735 25.3044 25.7735 24.5547V20.2549H27.3288V24.6318C27.3288 24.9846 27.3795 25.3191 27.481 25.6351C27.5898 25.9438 27.7674 26.1974 28.014 26.3958C28.2677 26.5869 28.6121 26.6825 29.0472 26.6825C29.4895 26.6825 29.8303 26.5869 30.0695 26.3958C30.3088 26.1974 30.4756 25.9401 30.5698 25.6241C30.6641 25.308 30.7112 24.9773 30.7112 24.6318V20.2549H32.2665V24.5547C32.2665 25.297 32.1541 25.9401 31.9294 26.484C31.7046 27.0206 31.3529 27.4322 30.8744 27.7188C30.3958 28.0055 29.7831 28.1488 29.0363 28.1488Z" fill="white"/>
<path d="M37.1858 28.1488C36.6493 28.1488 36.149 28.0643 35.6849 27.8952C35.2281 27.7262 34.8438 27.4579 34.5321 27.0904C34.2275 26.7229 34.0354 26.2488 33.9556 25.6682H35.5435C35.6088 25.9181 35.7284 26.1202 35.9025 26.2745C36.0765 26.4215 36.2831 26.5281 36.5224 26.5943C36.7689 26.6604 37.0263 26.6935 37.2946 26.6935C37.4976 26.6935 37.697 26.6678 37.8928 26.6163C38.0886 26.5649 38.2481 26.4767 38.3713 26.3517C38.5018 26.2268 38.5671 26.0577 38.5671 25.8446C38.5671 25.6829 38.5308 25.5506 38.4583 25.4477C38.3931 25.3448 38.2952 25.2639 38.1647 25.2051C38.0414 25.139 37.8892 25.0802 37.7079 25.0287C37.5556 24.9846 37.3961 24.9479 37.2293 24.9185C37.0698 24.8891 36.9103 24.8523 36.7508 24.8082C36.5985 24.7641 36.4499 24.7127 36.3049 24.6539C36.0293 24.5804 35.7647 24.4922 35.5109 24.3893C35.2571 24.279 35.0324 24.1431 34.8366 23.9814C34.6408 23.8123 34.4849 23.6028 34.3689 23.3529C34.2602 23.103 34.2058 22.8017 34.2058 22.4489C34.2058 22.0667 34.2674 21.7433 34.3907 21.4787C34.5212 21.2141 34.6916 20.9973 34.9019 20.8282C35.1194 20.6518 35.3587 20.5159 35.6197 20.4203C35.888 20.3248 36.1562 20.2586 36.4245 20.2219C36.6928 20.1851 36.9466 20.1667 37.1858 20.1667C37.6861 20.1667 38.1357 20.2549 38.5345 20.4313C38.9333 20.6077 39.2595 20.8723 39.5133 21.2251C39.7671 21.5779 39.9121 22.0226 39.9484 22.5592H38.4366C38.4076 22.3387 38.3278 22.1586 38.1973 22.0189C38.0668 21.8793 37.9 21.7764 37.697 21.7102C37.5012 21.6441 37.2801 21.611 37.0336 21.611C36.8741 21.611 36.7182 21.6257 36.5659 21.6551C36.4136 21.6845 36.2759 21.7323 36.1526 21.7984C36.0366 21.8572 35.9423 21.9381 35.8698 22.041C35.8046 22.1439 35.7719 22.2688 35.7719 22.4158C35.7719 22.5628 35.8118 22.6915 35.8916 22.8017C35.9713 22.9046 36.0873 22.9965 36.2396 23.0773C36.3991 23.1508 36.584 23.2206 36.7943 23.2868C37.0118 23.3603 37.2402 23.4191 37.4795 23.4632C37.7188 23.5073 37.9472 23.5661 38.1647 23.6396C38.4402 23.7131 38.6976 23.8013 38.9369 23.9042C39.1762 23.9997 39.3864 24.1247 39.5677 24.279C39.749 24.426 39.8904 24.6171 39.9919 24.8523C40.0934 25.0802 40.1441 25.3632 40.1441 25.7013C40.1441 26.1496 40.0608 26.5318 39.894 26.8478C39.7345 27.1565 39.5133 27.4064 39.2305 27.5975C38.955 27.7886 38.6396 27.9283 38.2843 28.0165C37.929 28.1047 37.5629 28.1488 37.1858 28.1488Z" fill="white"/>
<path d="M41.8969 28.0606V20.2549H43.4522V28.0606H41.8969Z" fill="white"/>
<path d="M45.5183 28.0606V20.2549H47.1062L50.6627 25.5359V20.2549H52.218V28.0606H50.6736L47.0736 22.8348V28.0606H45.5183Z" fill="white"/>
<path d="M54.2804 28.0606V20.2549H59.8272V21.7213H55.8356V23.4852H59.2616V24.8964H55.8356V26.6053H59.8272V28.0606H54.2804Z" fill="white"/>
<path d="M64.3744 28.1488C63.8378 28.1488 63.3375 28.0643 62.8735 27.8952C62.4167 27.7262 62.0324 27.4579 61.7206 27.0904C61.4161 26.7229 61.2239 26.2488 61.1442 25.6682H62.7321C62.7974 25.9181 62.917 26.1202 63.091 26.2745C63.265 26.4215 63.4717 26.5281 63.711 26.5943C63.9575 26.6604 64.2149 26.6935 64.4832 26.6935C64.6862 26.6935 64.8856 26.6678 65.0813 26.6163C65.2771 26.5649 65.4366 26.4767 65.5599 26.3517C65.6904 26.2268 65.7557 26.0577 65.7557 25.8446C65.7557 25.6829 65.7194 25.5506 65.6469 25.4477C65.5816 25.3448 65.4838 25.2639 65.3532 25.2051C65.23 25.139 65.0777 25.0802 64.8964 25.0287C64.7442 24.9846 64.5847 24.9479 64.4179 24.9185C64.2584 24.8891 64.0989 24.8523 63.9394 24.8082C63.7871 24.7641 63.6384 24.7127 63.4934 24.6539C63.2179 24.5804 62.9533 24.4922 62.6995 24.3893C62.4457 24.279 62.2209 24.1431 62.0252 23.9814C61.8294 23.8123 61.6735 23.6028 61.5575 23.3529C61.4487 23.103 61.3943 22.8017 61.3943 22.4489C61.3943 22.0667 61.456 21.7433 61.5792 21.4787C61.7098 21.2141 61.8801 20.9973 62.0904 20.8282C62.3079 20.6518 62.5472 20.5159 62.8082 20.4203C63.0765 20.3248 63.3448 20.2586 63.6131 20.2219C63.8813 20.1851 64.1351 20.1667 64.3744 20.1667C64.8747 20.1667 65.3242 20.2549 65.723 20.4313C66.1218 20.6077 66.4481 20.8723 66.7019 21.2251C66.9557 21.5779 67.1007 22.0226 67.1369 22.5592H65.6251C65.5961 22.3387 65.5164 22.1586 65.3859 22.0189C65.2554 21.8793 65.0886 21.7764 64.8856 21.7102C64.6898 21.6441 64.4687 21.611 64.2221 21.611C64.0626 21.611 63.9067 21.6257 63.7545 21.6551C63.6022 21.6845 63.4644 21.7323 63.3412 21.7984C63.2252 21.8572 63.1309 21.9381 63.0584 22.041C62.9931 22.1439 62.9605 22.2688 62.9605 22.4158C62.9605 22.5628 63.0004 22.6915 63.0801 22.8017C63.1599 22.9046 63.2759 22.9965 63.4282 23.0773C63.5877 23.1508 63.7726 23.2206 63.9829 23.2868C64.2004 23.3603 64.4288 23.4191 64.6681 23.4632C64.9073 23.5073 65.1357 23.5661 65.3532 23.6396C65.6288 23.7131 65.8862 23.8013 66.1255 23.9042C66.3647 23.9997 66.575 24.1247 66.7563 24.279C66.9375 24.426 67.0789 24.6171 67.1804 24.8523C67.2819 25.0802 67.3327 25.3632 67.3327 25.7013C67.3327 26.1496 67.2493 26.5318 67.0825 26.8478C66.923 27.1565 66.7019 27.4064 66.4191 27.5975C66.1436 27.7886 65.8282 27.9283 65.4729 28.0165C65.1176 28.1047 64.7514 28.1488 64.3744 28.1488Z" fill="white"/>
<path d="M72.1062 28.1488C71.5697 28.1488 71.0694 28.0643 70.6053 27.8952C70.1485 27.7262 69.7642 27.4579 69.4524 27.0904C69.1479 26.7229 68.9558 26.2488 68.876 25.6682H70.4639C70.5292 25.9181 70.6488 26.1202 70.8228 26.2745C70.9968 26.4215 71.2035 26.5281 71.4428 26.5943C71.6893 26.6604 71.9467 26.6935 72.215 26.6935C72.418 26.6935 72.6174 26.6678 72.8132 26.6163C73.0089 26.5649 73.1684 26.4767 73.2917 26.3517C73.4222 26.2268 73.4875 26.0577 73.4875 25.8446C73.4875 25.6829 73.4512 25.5506 73.3787 25.4477C73.3135 25.3448 73.2156 25.2639 73.0851 25.2051C72.9618 25.139 72.8095 25.0802 72.6283 25.0287C72.476 24.9846 72.3165 24.9479 72.1497 24.9185C71.9902 24.8891 71.8307 24.8523 71.6712 24.8082C71.5189 24.7641 71.3703 24.7127 71.2252 24.6539C70.9497 24.5804 70.6851 24.4922 70.4313 24.3893C70.1775 24.279 69.9527 24.1431 69.757 23.9814C69.5612 23.8123 69.4053 23.6028 69.2893 23.3529C69.1805 23.103 69.1262 22.8017 69.1262 22.4489C69.1262 22.0667 69.1878 21.7433 69.3111 21.4787C69.4416 21.2141 69.612 20.9973 69.8222 20.8282C70.0397 20.6518 70.279 20.5159 70.54 20.4203C70.8083 20.3248 71.0766 20.2586 71.3449 20.2219C71.6132 20.1851 71.8669 20.1667 72.1062 20.1667C72.6065 20.1667 73.0561 20.2549 73.4548 20.4313C73.8536 20.6077 74.1799 20.8723 74.4337 21.2251C74.6875 21.5779 74.8325 22.0226 74.8687 22.5592H73.357C73.328 22.3387 73.2482 22.1586 73.1177 22.0189C72.9872 21.8793 72.8204 21.7764 72.6174 21.7102C72.4216 21.6441 72.2005 21.611 71.9539 21.611C71.7944 21.611 71.6385 21.6257 71.4863 21.6551C71.334 21.6845 71.1962 21.7323 71.073 21.7984C70.957 21.8572 70.8627 21.9381 70.7902 22.041C70.7249 22.1439 70.6923 22.2688 70.6923 22.4158C70.6923 22.5628 70.7322 22.6915 70.812 22.8017C70.8917 22.9046 71.0077 22.9965 71.16 23.0773C71.3195 23.1508 71.5044 23.2206 71.7147 23.2868C71.9322 23.3603 72.1606 23.4191 72.3999 23.4632C72.6391 23.5073 72.8675 23.5661 73.0851 23.6396C73.3606 23.7131 73.618 23.8013 73.8573 23.9042C74.0965 23.9997 74.3068 24.1247 74.4881 24.279C74.6693 24.426 74.8107 24.6171 74.9122 24.8523C75.0137 25.0802 75.0645 25.3632 75.0645 25.7013C75.0645 26.1496 74.9811 26.5318 74.8144 26.8478C74.6548 27.1565 74.4337 27.4064 74.1509 27.5975C73.8754 27.7886 73.56 27.9283 73.2047 28.0165C72.8494 28.1047 72.4832 28.1488 72.1062 28.1488Z" fill="white"/>
<path d="M0 47.5163L5.12073 34.2008H8.08926L13.1543 47.5163H10.2971L9.48077 45.2406H3.67356L2.85722 47.5163H0ZM4.52702 42.8145H8.64586L6.605 37.0595L4.52702 42.8145Z" fill="white"/>
<path d="M15.6764 47.5163V34.2008H18.3852L24.4522 43.2094V34.2008H27.1053V47.5163H24.4707L18.3296 38.6017V47.5163H15.6764Z" fill="white"/>
<path d="M29.6216 47.5163L34.7423 34.2008H37.7109L42.7759 47.5163H39.9187L39.1024 45.2406H33.2952L32.4788 47.5163H29.6216ZM34.1486 42.8145H38.2675L36.2266 37.0595L34.1486 42.8145Z" fill="white"/>
<path d="M45.298 47.5163V34.2008H47.9511V45.0337H54.6118V47.5163H45.298Z" fill="white"/>
<path d="M59.5409 47.5163V42.5512L54.6614 34.2008H57.7227L60.8768 40.0498L64.0865 34.2008H67.0921L62.194 42.5324V47.5163H59.5409Z" fill="white"/>
<path d="M74.2929 47.6667C73.3776 47.6667 72.5241 47.5226 71.7325 47.2342C70.9532 46.9458 70.2977 46.4882 69.7658 45.8613C69.2463 45.2344 68.9186 44.4256 68.7825 43.4351H71.4913C71.6026 43.8614 71.8067 44.2062 72.1036 44.4695C72.4004 44.7203 72.7529 44.9021 73.1611 45.0149C73.5816 45.1278 74.0207 45.1842 74.4784 45.1842C74.8247 45.1842 75.1649 45.1403 75.4988 45.0526C75.8328 44.9648 76.1049 44.8143 76.3152 44.6012C76.5378 44.388 76.6491 44.0997 76.6491 43.736C76.6491 43.4602 76.5873 43.2345 76.4636 43.059C76.3523 42.8835 76.1853 42.7455 75.9627 42.6452C75.7524 42.5324 75.4926 42.4321 75.1834 42.3443C74.9237 42.2691 74.6516 42.2064 74.3671 42.1562C74.0949 42.1061 73.8228 42.0434 73.5507 41.9682C73.291 41.8929 73.0374 41.8052 72.79 41.7049C72.32 41.5795 71.8685 41.429 71.4356 41.2535C71.0027 41.0654 70.6193 40.8335 70.2853 40.5576C69.9514 40.2693 69.6854 39.9119 69.4875 39.4856C69.302 39.0593 69.2092 38.5453 69.2092 37.9434C69.2092 37.2915 69.3144 36.7398 69.5246 36.2884C69.7473 35.837 70.0379 35.4672 70.3967 35.1788C70.7677 34.8779 71.1759 34.6459 71.6212 34.4829C72.0788 34.3199 72.5365 34.2071 72.9941 34.1444C73.4518 34.0817 73.8847 34.0503 74.2929 34.0503C75.1463 34.0503 75.9132 34.2008 76.5935 34.5017C77.2738 34.8026 77.8304 35.254 78.2633 35.8558C78.6962 36.4577 78.9436 37.2162 79.0054 38.1315H76.4265C76.377 37.7554 76.241 37.4482 76.0183 37.21C75.7957 36.9717 75.5112 36.7962 75.1649 36.6833C74.8309 36.5705 74.4537 36.5141 74.0331 36.5141C73.761 36.5141 73.4951 36.5392 73.2353 36.5893C72.9756 36.6395 72.7406 36.721 72.5303 36.8338C72.3324 36.9341 72.1716 37.072 72.0479 37.2476C71.9366 37.4231 71.8809 37.6362 71.8809 37.887C71.8809 38.1378 71.9489 38.3572 72.085 38.5453C72.2211 38.7208 72.419 38.8775 72.6787 39.0154C72.9508 39.1408 73.2662 39.2599 73.6249 39.3728C73.996 39.4982 74.3856 39.5985 74.7938 39.6737C75.202 39.7489 75.5916 39.8492 75.9627 39.9746C76.4327 40.1 76.8718 40.2504 77.2799 40.426C77.6881 40.589 78.0468 40.8021 78.356 41.0654C78.6653 41.3162 78.9065 41.6422 79.0796 42.0434C79.2528 42.4321 79.3394 42.9148 79.3394 43.4916C79.3394 44.2564 79.1971 44.9084 78.9126 45.4475C78.6405 45.9741 78.2633 46.4004 77.7809 46.7264C77.3109 47.0524 76.7728 47.2906 76.1667 47.4411C75.5607 47.5915 74.936 47.6667 74.2929 47.6667Z" fill="white"/>
<path d="M85.3022 47.5163V36.7022H81.2947V34.2008H92V36.7022H87.9739V47.5163H85.3022Z" fill="white"/>
</svg>
