<svg width="92" height="66" viewBox="0 0 92 66" fill="none" xmlns="http://www.w3.org/2000/svg">
<path d="M23.412 28.1488C22.8755 28.1488 22.3752 28.0643 21.9111 27.8952C21.4543 27.7262 21.07 27.4579 20.7583 27.0904C20.4537 26.7229 20.2616 26.2488 20.1818 25.6682H21.7697C21.835 25.9181 21.9546 26.1202 22.1286 26.2745C22.3027 26.4215 22.5093 26.5281 22.7486 26.5943C22.9951 26.6604 23.2525 26.6935 23.5208 26.6935C23.7238 26.6935 23.9232 26.6678 24.119 26.6163C24.3147 26.5649 24.4743 26.4767 24.5975 26.3517C24.728 26.2268 24.7933 26.0577 24.7933 25.8446C24.7933 25.6829 24.757 25.5506 24.6845 25.4477C24.6193 25.3448 24.5214 25.2639 24.3909 25.2051C24.2676 25.139 24.1154 25.0802 23.9341 25.0287C23.7818 24.9846 23.6223 24.9479 23.4555 24.9185C23.296 24.8891 23.1365 24.8523 22.977 24.8082C22.8247 24.7641 22.6761 24.7127 22.5311 24.6539C22.2555 24.5804 21.9909 24.4922 21.7371 24.3893C21.4833 24.279 21.2586 24.1431 21.0628 23.9814C20.867 23.8123 20.7111 23.6028 20.5951 23.3529C20.4864 23.103 20.432 22.8017 20.432 22.4489C20.432 22.0667 20.4936 21.7433 20.6169 21.4787C20.7474 21.2141 20.9178 20.9973 21.128 20.8282C21.3456 20.6518 21.5848 20.5159 21.8459 20.4203C22.1141 20.3248 22.3824 20.2586 22.6507 20.2219C22.919 20.1851 23.1728 20.1667 23.412 20.1667C23.9123 20.1667 24.3619 20.2549 24.7607 20.4313C25.1595 20.6077 25.4857 20.8723 25.7395 21.2251C25.9933 21.5779 26.1383 22.0226 26.1746 22.5592H24.6628C24.6338 22.3387 24.554 22.1586 24.4235 22.0189C24.293 21.8793 24.1262 21.7764 23.9232 21.7102C23.7274 21.6441 23.5063 21.611 23.2598 21.611C23.1002 21.611 22.9444 21.6257 22.7921 21.6551C22.6398 21.6845 22.5021 21.7323 22.3788 21.7984C22.2628 21.8572 22.1685 21.9381 22.096 22.041C22.0308 22.1439 21.9981 22.2688 21.9981 22.4158C21.9981 22.5628 22.038 22.6915 22.1178 22.8017C22.1975 22.9046 22.3135 22.9965 22.4658 23.0773C22.6253 23.1508 22.8102 23.2206 23.0205 23.2868C23.238 23.3603 23.4664 23.4191 23.7057 23.4632C23.945 23.5073 24.1734 23.5661 24.3909 23.6396C24.6664 23.7131 24.9238 23.8013 25.1631 23.9042C25.4024 23.9997 25.6126 24.1247 25.7939 24.279C25.9752 24.426 26.1166 24.6171 26.2181 24.8523C26.3196 25.0802 26.3703 25.3632 26.3703 25.7013C26.3703 26.1496 26.2869 26.5318 26.1202 26.8478C25.9607 27.1565 25.7395 27.4064 25.4567 27.5975C25.1812 27.7886 24.8658 27.9283 24.5105 28.0165C24.1552 28.1047 23.7891 28.1488 23.412 28.1488Z" fill="white"/>
<path d="M30.0206 28.0606V25.15L27.1602 20.2549H28.9548L30.8037 23.6837L32.6853 20.2549H34.4472L31.5759 25.139V28.0606H30.0206Z" fill="white"/>
<path d="M38.4508 28.1488C37.9142 28.1488 37.4139 28.0643 36.9499 27.8952C36.4931 27.7262 36.1088 27.4579 35.797 27.0904C35.4925 26.7229 35.3003 26.2488 35.2206 25.6682H36.8085C36.8738 25.9181 36.9934 26.1202 37.1674 26.2745C37.3414 26.4215 37.5481 26.5281 37.7873 26.5943C38.0339 26.6604 38.2913 26.6935 38.5596 26.6935C38.7626 26.6935 38.962 26.6678 39.1577 26.6163C39.3535 26.5649 39.513 26.4767 39.6363 26.3517C39.7668 26.2268 39.8321 26.0577 39.8321 25.8446C39.8321 25.6829 39.7958 25.5506 39.7233 25.4477C39.658 25.3448 39.5602 25.2639 39.4296 25.2051C39.3064 25.139 39.1541 25.0802 38.9728 25.0287C38.8206 24.9846 38.6611 24.9479 38.4943 24.9185C38.3348 24.8891 38.1753 24.8523 38.0157 24.8082C37.8635 24.7641 37.7148 24.7127 37.5698 24.6539C37.2943 24.5804 37.0296 24.4922 36.7759 24.3893C36.5221 24.279 36.2973 24.1431 36.1016 23.9814C35.9058 23.8123 35.7499 23.6028 35.6339 23.3529C35.5251 23.103 35.4707 22.8017 35.4707 22.4489C35.4707 22.0667 35.5324 21.7433 35.6556 21.4787C35.7861 21.2141 35.9565 20.9973 36.1668 20.8282C36.3843 20.6518 36.6236 20.5159 36.8846 20.4203C37.1529 20.3248 37.4212 20.2586 37.6895 20.2219C37.9577 20.1851 38.2115 20.1667 38.4508 20.1667C38.9511 20.1667 39.4006 20.2549 39.7994 20.4313C40.1982 20.6077 40.5245 20.8723 40.7783 21.2251C41.0321 21.5779 41.1771 22.0226 41.2133 22.5592H39.7015C39.6725 22.3387 39.5928 22.1586 39.4623 22.0189C39.3318 21.8793 39.165 21.7764 38.962 21.7102C38.7662 21.6441 38.5451 21.611 38.2985 21.611C38.139 21.611 37.9831 21.6257 37.8309 21.6551C37.6786 21.6845 37.5408 21.7323 37.4176 21.7984C37.3016 21.8572 37.2073 21.9381 37.1348 22.041C37.0695 22.1439 37.0369 22.2688 37.0369 22.4158C37.0369 22.5628 37.0768 22.6915 37.1565 22.8017C37.2363 22.9046 37.3523 22.9965 37.5046 23.0773C37.6641 23.1508 37.849 23.2206 38.0593 23.2868C38.2768 23.3603 38.5052 23.4191 38.7444 23.4632C38.9837 23.5073 39.2121 23.5661 39.4296 23.6396C39.7052 23.7131 39.9626 23.8013 40.2018 23.9042C40.4411 23.9997 40.6514 24.1247 40.8327 24.279C41.0139 24.426 41.1553 24.6171 41.2568 24.8523C41.3583 25.0802 41.4091 25.3632 41.4091 25.7013C41.4091 26.1496 41.3257 26.5318 41.1589 26.8478C40.9994 27.1565 40.7783 27.4064 40.4955 27.5975C40.22 27.7886 39.9046 27.9283 39.5493 28.0165C39.194 28.1047 38.8278 28.1488 38.4508 28.1488Z" fill="white"/>
<path d="M44.687 28.0606V21.7213H42.3378V20.2549H48.6133V21.7213H46.2532V28.0606H44.687Z" fill="white"/>
<path d="M49.959 28.0606V20.2549H55.5058V21.7213H51.5143V23.4852H54.9402V24.8964H51.5143V26.6053H55.5058V28.0606H49.959Z" fill="white"/>
<path d="M57.1491 28.0606V20.2549H59.2156L61.2712 24.0255L63.305 20.2549H65.2953V28.0606H63.74V22.3607L61.5539 26.3186H60.9231L58.7044 22.3607V28.0606H57.1491Z" fill="white"/>
<path d="M70.2702 28.1488C69.7336 28.1488 69.2333 28.0643 68.7693 27.8952C68.3125 27.7262 67.9282 27.4579 67.6164 27.0904C67.3119 26.7229 67.1198 26.2488 67.04 25.6682H68.6279C68.6932 25.9181 68.8128 26.1202 68.9868 26.2745C69.1608 26.4215 69.3675 26.5281 69.6068 26.5943C69.8533 26.6604 70.1107 26.6935 70.379 26.6935C70.582 26.6935 70.7814 26.6678 70.9771 26.6163C71.1729 26.5649 71.3324 26.4767 71.4557 26.3517C71.5862 26.2268 71.6515 26.0577 71.6515 25.8446C71.6515 25.6829 71.6152 25.5506 71.5427 25.4477C71.4774 25.3448 71.3796 25.2639 71.249 25.2051C71.1258 25.139 70.9735 25.0802 70.7923 25.0287C70.64 24.9846 70.4805 24.9479 70.3137 24.9185C70.1542 24.8891 69.9947 24.8523 69.8352 24.8082C69.6829 24.7641 69.5342 24.7127 69.3892 24.6539C69.1137 24.5804 68.8491 24.4922 68.5953 24.3893C68.3415 24.279 68.1167 24.1431 67.921 23.9814C67.7252 23.8123 67.5693 23.6028 67.4533 23.3529C67.3445 23.103 67.2901 22.8017 67.2901 22.4489C67.2901 22.0667 67.3518 21.7433 67.475 21.4787C67.6056 21.2141 67.7759 20.9973 67.9862 20.8282C68.2037 20.6518 68.443 20.5159 68.704 20.4203C68.9723 20.3248 69.2406 20.2586 69.5089 20.2219C69.7771 20.1851 70.0309 20.1667 70.2702 20.1667C70.7705 20.1667 71.22 20.2549 71.6188 20.4313C72.0176 20.6077 72.3439 20.8723 72.5977 21.2251C72.8515 21.5779 72.9965 22.0226 73.0327 22.5592H71.521C71.4919 22.3387 71.4122 22.1586 71.2817 22.0189C71.1512 21.8793 70.9844 21.7764 70.7814 21.7102C70.5856 21.6441 70.3645 21.611 70.1179 21.611C69.9584 21.611 69.8025 21.6257 69.6503 21.6551C69.498 21.6845 69.3602 21.7323 69.237 21.7984C69.121 21.8572 69.0267 21.9381 68.9542 22.041C68.8889 22.1439 68.8563 22.2688 68.8563 22.4158C68.8563 22.5628 68.8962 22.6915 68.9759 22.8017C69.0557 22.9046 69.1717 22.9965 69.324 23.0773C69.4835 23.1508 69.6684 23.2206 69.8787 23.2868C70.0962 23.3603 70.3246 23.4191 70.5639 23.4632C70.8031 23.5073 71.0315 23.5661 71.249 23.6396C71.5246 23.7131 71.782 23.8013 72.0212 23.9042C72.2605 23.9997 72.4708 24.1247 72.6521 24.279C72.8333 24.426 72.9747 24.6171 73.0762 24.8523C73.1777 25.0802 73.2285 25.3632 73.2285 25.7013C73.2285 26.1496 73.1451 26.5318 72.9783 26.8478C72.8188 27.1565 72.5977 27.4064 72.3149 27.5975C72.0394 27.7886 71.724 27.9283 71.3687 28.0165C71.0134 28.1047 70.6472 28.1488 70.2702 28.1488Z" fill="white"/>
<path d="M0 47.5163L5.12073 34.2008H8.08926L13.1543 47.5163H10.2971L9.48076 45.2406H3.67356L2.85722 47.5163H0ZM4.52702 42.8145H8.64586L6.60499 37.0595L4.52702 42.8145Z" fill="white"/>
<path d="M15.6764 47.5163V34.2008H18.3852L24.4522 43.2094V34.2008H27.1053V47.5163H24.4707L18.3296 38.6017V47.5163H15.6764Z" fill="white"/>
<path d="M29.6216 47.5163L34.7423 34.2008H37.7109L42.7759 47.5163H39.9187L39.1024 45.2406H33.2952L32.4788 47.5163H29.6216ZM34.1486 42.8145H38.2675L36.2266 37.0595L34.1486 42.8145Z" fill="white"/>
<path d="M45.298 47.5163V34.2008H47.9511V45.0337H54.6118V47.5163H45.298Z" fill="white"/>
<path d="M59.5409 47.5163V42.5512L54.6614 34.2008H57.7227L60.8767 40.0498L64.0865 34.2008H67.0921L62.194 42.5324V47.5163H59.5409Z" fill="white"/>
<path d="M74.2928 47.6668C73.3775 47.6668 72.5241 47.5226 71.7325 47.2342C70.9532 46.9458 70.2977 46.4882 69.7658 45.8613C69.2463 45.2344 68.9186 44.4256 68.7825 43.4351H71.4913C71.6026 43.8614 71.8067 44.2062 72.1036 44.4695C72.4004 44.7203 72.7529 44.9021 73.1611 45.0149C73.5816 45.1278 74.0207 45.1842 74.4784 45.1842C74.8247 45.1842 75.1649 45.1403 75.4988 45.0526C75.8328 44.9648 76.1049 44.8143 76.3152 44.6012C76.5378 44.388 76.6491 44.0997 76.6491 43.736C76.6491 43.4602 76.5873 43.2345 76.4636 43.059C76.3523 42.8835 76.1853 42.7455 75.9627 42.6452C75.7524 42.5324 75.4926 42.4321 75.1834 42.3443C74.9237 42.2691 74.6515 42.2064 74.3671 42.1562C74.0949 42.1061 73.8228 42.0434 73.5507 41.9682C73.291 41.8929 73.0374 41.8052 72.79 41.7049C72.32 41.5795 71.8685 41.429 71.4356 41.2535C71.0027 41.0654 70.6193 40.8335 70.2853 40.5576C69.9514 40.2693 69.6854 39.9119 69.4875 39.4856C69.302 39.0593 69.2092 38.5453 69.2092 37.9434C69.2092 37.2915 69.3144 36.7398 69.5246 36.2884C69.7473 35.837 70.0379 35.4672 70.3966 35.1788C70.7677 34.8779 71.1759 34.6459 71.6212 34.4829C72.0788 34.3199 72.5365 34.2071 72.9941 34.1444C73.4518 34.0817 73.8847 34.0503 74.2928 34.0503C75.1463 34.0503 75.9132 34.2008 76.5935 34.5017C77.2738 34.8026 77.8304 35.254 78.2633 35.8558C78.6962 36.4577 78.9436 37.2162 79.0054 38.1315H76.4265C76.377 37.7554 76.241 37.4482 76.0183 37.21C75.7957 36.9717 75.5112 36.7962 75.1649 36.6834C74.8309 36.5705 74.4536 36.5141 74.0331 36.5141C73.761 36.5141 73.4951 36.5392 73.2353 36.5893C72.9756 36.6395 72.7406 36.721 72.5303 36.8338C72.3324 36.9341 72.1716 37.072 72.0479 37.2476C71.9366 37.4231 71.8809 37.6362 71.8809 37.887C71.8809 38.1378 71.9489 38.3572 72.085 38.5453C72.2211 38.7208 72.419 38.8775 72.6787 39.0154C72.9508 39.1408 73.2662 39.2599 73.6249 39.3728C73.996 39.4982 74.3856 39.5985 74.7938 39.6737C75.202 39.7489 75.5916 39.8492 75.9627 39.9746C76.4327 40.1 76.8718 40.2505 77.2799 40.426C77.6881 40.589 78.0468 40.8021 78.356 41.0654C78.6653 41.3162 78.9065 41.6422 79.0796 42.0434C79.2528 42.4321 79.3394 42.9148 79.3394 43.4916C79.3394 44.2564 79.1971 44.9084 78.9126 45.4475C78.6405 45.9741 78.2633 46.4004 77.7809 46.7264C77.3109 47.0524 76.7728 47.2906 76.1667 47.4411C75.5607 47.5915 74.936 47.6668 74.2928 47.6668Z" fill="white"/>
<path d="M85.3022 47.5163V36.7022H81.2947V34.2008H92V36.7022H87.9739V47.5163H85.3022Z" fill="white"/>
</svg>
