<svg width="92" height="67" viewBox="0 0 92 67" fill="none" xmlns="http://www.w3.org/2000/svg">
<g clip-path="url(#clip0_584_3276)">
<path d="M64.8646 43.8426C59.313 51.217 47.4539 48.7277 39.8506 49.0858C39.8506 49.0858 38.5046 49.1604 37.1489 49.3829C37.1489 49.3829 37.6616 49.1649 38.3153 48.9402C43.6554 47.0991 46.1791 46.7291 49.4239 45.0675C55.5206 41.9539 61.5882 35.1718 62.8227 28.1266C60.5022 34.9026 53.4443 40.7345 47.0179 43.1027C42.6193 44.7209 34.6648 46.2958 34.6637 46.2964C34.6674 46.302 34.3467 46.1304 34.3422 46.1267C28.9325 43.5027 28.7764 31.8217 38.6014 28.0564C42.9092 26.4044 47.0296 27.3117 51.6864 26.2067C56.6531 25.0294 62.4055 21.3178 64.7436 16.4653C67.3648 24.2163 70.5136 36.343 64.8646 43.8426ZM64.9612 14.0634C64.3002 15.6288 63.4937 17.0395 62.5638 18.3012C58.4711 14.1135 52.7585 11.5044 46.4443 11.5044C34.0236 11.5044 23.9199 21.5786 23.9199 33.9593C23.9199 40.4497 26.6987 46.3032 31.129 50.4062L31.6223 50.8418C30.7986 50.1722 30.6719 48.9662 31.3395 48.1443C32.0112 47.3219 33.222 47.1946 34.046 47.8605C34.8723 48.5279 34.9982 49.7369 34.3292 50.5603C33.6627 51.3841 32.4497 51.5085 31.6245 50.8437L31.9602 51.1401C35.879 54.4297 40.9306 56.4167 46.4443 56.4167C58.3165 56.4167 68.0652 47.2057 68.8997 35.5798C69.5177 29.8874 67.8312 22.6594 64.9612 14.0634Z" fill="white"/>
</g>
<defs>
<clipPath id="clip0_584_3276">
<rect width="45.08" height="44.9167" fill="white" transform="translate(23.9199 11.5)"/>
</clipPath>
</defs>
</svg>
