<svg width="92" height="67" viewBox="0 0 92 67" fill="none" xmlns="http://www.w3.org/2000/svg">
<path opacity="0.12" d="M72.576 21.0363C72.5756 20.0191 72.357 19.1202 71.915 18.3489C71.4808 17.5901 70.8306 16.9543 69.9585 16.4516C62.7594 12.3196 55.5533 8.20033 48.3565 4.06419C46.4163 2.94923 44.5351 2.99009 42.6093 4.12105C39.7438 5.80297 25.3974 13.9845 21.1224 16.4492C19.3618 17.464 18.5051 19.0166 18.5047 21.0344C18.502 29.344 18.5047 37.6535 18.502 45.9631C18.502 46.958 18.7116 47.8396 19.1342 48.5993C19.5685 49.3808 20.2278 50.0341 21.1201 50.5482C25.3953 53.013 39.7436 61.1939 42.6084 62.8764C44.5351 64.008 46.4163 64.0485 48.3571 62.9333C55.5541 58.7969 62.7607 54.6776 69.9608 50.5457C70.8531 50.0318 71.5124 49.3781 71.9467 48.5972C72.3686 47.8373 72.5787 46.9559 72.5787 45.9608C72.5787 45.9608 72.5787 29.3461 72.576 21.0363Z" fill="white"/>
<path opacity="0.07" d="M45.6228 33.4199L19.1343 48.6002C19.5687 49.3818 20.2279 50.035 21.1202 50.5491C25.3953 53.0136 39.7434 61.1939 42.6082 62.8763C44.5349 64.0078 46.416 64.0482 48.3568 62.9332C55.5537 58.7971 62.7601 54.6781 69.9602 50.5465C70.8524 50.0327 71.5117 49.379 71.9461 48.5981L45.6228 33.4199Z" fill="white"/>
<path opacity="0.13" d="M72.5762 20.9901C72.5758 19.9702 72.3572 19.0689 71.9151 18.2957L45.6196 33.4043L71.9469 48.6233C72.3688 47.8614 72.5785 46.9777 72.579 45.98C72.579 45.98 72.579 29.3217 72.5762 20.9901Z" fill="white"/>
<path d="M61.2189 27.7368V30.5773H64.0698V27.7368H65.4952V30.5773H68.3461V31.9976H65.4952V34.8379H68.3461V36.2582H65.4952V39.0987H64.0698V36.2582H61.2189V39.0987H59.7935V36.2582H56.9429V34.8379H59.7935V31.9976H56.9429V30.5773H59.7935V27.7368H61.2189ZM64.0698 31.9974H61.2189V34.8379H64.0698V31.9974Z" fill="white"/>
<path d="M45.6816 13.4714C53.1174 13.4714 59.6094 17.495 63.0867 23.4759L63.0529 23.4183L54.304 28.4374C52.5804 25.5296 49.4206 23.5671 45.7956 23.5267L45.6814 23.526C40.1538 23.526 35.6725 27.9911 35.6725 33.4987C35.6706 35.2346 36.1258 36.9406 36.9925 38.4465C38.7178 41.4475 41.9611 43.4715 45.6816 43.4715C49.4251 43.4715 52.6868 41.4217 54.4032 38.3887L54.3615 38.4615L63.0971 43.5038C59.6578 49.434 53.2547 53.4452 45.9054 53.5251L45.6816 53.5263C38.2222 53.5263 31.7119 49.4778 28.2432 43.4654C26.5499 40.5302 25.5811 37.1274 25.5811 33.4987C25.5811 22.438 34.5801 13.4712 45.6814 13.4712L45.6816 13.4714Z" fill="white"/>
</svg>
