<svg width="92" height="67" viewBox="0 0 92 67" fill="none" xmlns="http://www.w3.org/2000/svg">
<g clip-path="url(#clip0_584_3927)">
<path d="M16.3163 28.7074C16.1802 28.7074 16.1461 28.6381 16.2142 28.5341L16.9291 27.5983C16.9972 27.4944 17.1674 27.425 17.3035 27.425H29.4561C29.5923 27.425 29.6263 27.529 29.5582 27.633L28.9796 28.5341C28.9115 28.6381 28.7413 28.7421 28.6391 28.7421L16.3163 28.7074Z" fill="white"/>
<path d="M11.1762 31.8961C11.04 31.8961 11.006 31.8268 11.0741 31.7229L11.7889 30.7871C11.857 30.6831 12.0272 30.6138 12.1634 30.6138H27.686C27.8222 30.6138 27.8903 30.7177 27.8562 30.8217L27.5839 31.6535C27.5499 31.7922 27.4137 31.8615 27.2775 31.8615L11.1762 31.8961Z" fill="white"/>
<path d="M19.414 35.0849C19.2778 35.0849 19.2438 34.9809 19.3119 34.8769L19.7884 34.0104C19.8565 33.9065 19.9927 33.8025 20.1289 33.8025H26.937C27.0732 33.8025 27.1413 33.9065 27.1413 34.0451L27.0732 34.8769C27.0732 35.0155 26.937 35.1195 26.8349 35.1195L19.414 35.0849Z" fill="white"/>
<path d="M54.7483 28.0837C52.6037 28.6382 51.14 29.0541 49.0294 29.6087C48.5188 29.7473 48.4848 29.782 48.0423 29.2621C47.5316 28.6729 47.1572 28.2916 46.4423 27.945C44.2978 26.8706 42.2213 27.1825 40.2809 28.4649C37.9661 29.9899 36.7747 32.2427 36.8088 35.0501C36.8428 37.8228 38.715 40.1103 41.4043 40.4915C43.7191 40.8035 45.6594 39.9717 47.1912 38.2041C47.4976 37.8228 47.7699 37.4069 48.1103 36.9217C46.8849 36.9217 45.353 36.9217 41.5404 36.9217C40.8256 36.9217 40.6554 36.4711 40.8937 35.8819C41.3362 34.8075 42.1532 33.0052 42.6298 32.1041C42.7319 31.8961 42.9702 31.5496 43.4808 31.5496C45.2169 31.5496 51.6165 31.5496 55.8717 31.5496C55.8036 32.4853 55.8036 33.4211 55.6674 34.3569C55.293 36.8524 54.3739 39.1398 52.8761 41.1501C50.4251 44.4427 47.2253 46.4875 43.1744 47.0421C39.8384 47.4926 36.7407 46.8341 34.0174 44.7546C31.4984 42.8137 30.0687 40.2489 29.6942 37.0603C29.2517 33.2825 30.341 29.8859 32.5877 26.9053C35.0046 23.682 38.2044 21.6371 42.1191 20.9093C45.319 20.3201 48.3827 20.7013 51.14 22.6076C52.9441 23.8206 54.2377 25.4843 55.0887 27.4945C55.293 27.8064 55.1568 27.9797 54.7483 28.0837Z" fill="white"/>
<path d="M66.0156 47.2501C62.9179 47.1808 60.0925 46.2797 57.7097 44.2001C55.7013 42.4325 54.4417 40.1797 54.0333 37.511C53.4205 33.5945 54.4758 30.1287 56.7906 27.044C59.2755 23.7168 62.2711 21.9838 66.322 21.256C69.7942 20.6321 73.0621 20.9787 76.0237 23.0236C78.7129 24.8952 80.3809 27.4253 80.8234 30.7525C81.4021 35.4315 80.0745 39.2439 76.9087 42.5019C74.662 44.824 71.9047 46.2797 68.7389 46.9382C67.8198 47.1115 66.9007 47.1462 66.0156 47.2501ZM74.1174 33.248C74.0833 32.7974 74.0833 32.4508 74.0153 32.1042C73.4025 28.673 70.3048 26.7321 67.0709 27.4946C63.9051 28.2224 61.8627 30.2673 61.1138 33.5252C60.501 36.2286 61.7946 38.9667 64.2455 40.0757C66.1178 40.9076 67.99 40.8036 69.7942 39.8678C72.4834 38.4468 73.9472 36.2286 74.1174 33.248Z" fill="white"/>
</g>
<defs>
<clipPath id="clip0_584_3927">
<rect width="69.92" height="26.5833" fill="white" transform="translate(11.04 20.6667)"/>
</clipPath>
</defs>
</svg>
