<svg width="92" height="67" viewBox="0 0 92 67" fill="none" xmlns="http://www.w3.org/2000/svg">
<path d="M38.8169 45.6074C38.8169 45.6074 36.7164 46.8245 40.3119 47.2363C44.6678 47.7314 46.8939 47.6605 51.6943 46.7552C51.6943 46.7552 52.9564 47.5436 54.7187 48.2266C43.958 52.8218 30.3648 47.9604 38.8169 45.6074ZM37.502 39.6108C37.502 39.6108 35.146 41.3486 38.7442 41.7193C43.3973 42.1976 47.0719 42.2368 53.4305 41.0168C53.4305 41.0168 54.31 41.9052 55.6929 42.3911C42.6823 46.1817 28.191 42.69 37.502 39.6108Z" fill="white"/>
<path d="M48.5873 29.4388C51.2388 32.4804 47.8906 35.2174 47.8906 35.2174C47.8906 35.2174 54.6231 31.7545 51.5312 27.418C48.6434 23.3742 46.4288 21.3647 58.4176 14.437C58.4176 14.437 39.5992 19.12 48.5873 29.4388Z" fill="white"/>
<path d="M62.8189 50.0429C62.8189 50.0429 64.3733 51.319 61.1068 52.3063C54.8956 54.1812 35.2547 54.7473 29.7985 52.381C27.8373 51.531 31.5154 50.3511 32.6723 50.1034C33.8788 49.8427 34.5685 49.8914 34.5685 49.8914C32.3872 48.3603 20.4699 52.8976 28.5151 54.1969C50.4553 57.7421 68.5098 52.6006 62.8189 50.0429ZM39.8265 33.398C39.8265 33.398 29.8361 35.7625 36.2888 36.6208C39.0132 36.9843 44.4444 36.9022 49.5035 36.4797C53.6381 36.1324 57.7897 35.3934 57.7897 35.3934C57.7897 35.3934 56.3318 36.0155 55.2771 36.7331C45.1318 39.3917 25.533 38.1549 31.1752 35.4355C35.9469 33.1373 39.8265 33.398 39.8265 33.398ZM57.7485 43.3794C68.0618 38.0397 63.2933 32.9083 59.965 33.5997C59.1492 33.7688 58.7855 33.9153 58.7855 33.9153C58.7855 33.9153 59.0884 33.4428 59.6668 33.2382C66.2511 30.9316 71.3149 40.0408 57.5412 43.6485C57.5412 43.6486 57.7009 43.5065 57.7485 43.3794Z" fill="white"/>
<path d="M51.5309 3.25016C51.5309 3.25016 57.2426 8.94317 46.1137 17.6969C37.1897 24.7191 44.0788 28.723 46.1101 33.2975C40.9009 28.6147 37.0779 24.4922 39.6427 20.6555C43.407 15.0233 53.8354 12.2928 51.5309 3.25016Z" fill="white"/>
<path d="M40.8403 57.8485C50.7397 58.48 65.9411 57.4982 66.3012 52.8311C66.3012 52.8311 65.6091 54.6005 58.1199 56.0055C49.6706 57.5897 39.2497 57.4048 33.0688 56.3894C33.069 56.3894 34.334 57.4329 40.8403 57.8485Z" fill="white"/>
</svg>
