<?xml version="1.0" encoding="UTF-8"?>
<svg version="1.1" xmlns="http://www.w3.org/2000/svg" width="1336" height="123">
<path d="M0 0 C40.26 0 80.52 0 122 0 C122.85996905 4.29984525 123.13416163 7.8403081 123.125 12.1875 C123.12886719 14.03408203 123.12886719 14.03408203 123.1328125 15.91796875 C123 19 123 19 122 21 C88.67 21 55.34 21 21 21 C21 26.28 21 31.56 21 37 C54.33 37 87.66 37 122 37 C122.67842167 41.07053002 123.1257894 44.31329448 123.12939453 48.33105469 C123.13254669 49.34520447 123.13569885 50.35935425 123.13894653 51.40423584 C123.13591019 53.02171722 123.13591019 53.02171722 123.1328125 54.671875 C123.13376923 55.79064026 123.13472595 56.90940552 123.13571167 58.06207275 C123.13639047 60.41882382 123.13455715 62.77557678 123.13037109 65.13232422 C123.12499849 68.75101881 123.13033658 72.36959041 123.13671875 75.98828125 C123.13605831 78.27864611 123.13477786 80.56901089 123.1328125 82.859375 C123.13483673 83.94579285 123.13686096 85.03221069 123.13894653 86.15155029 C123.13421829 87.653862 123.13421829 87.653862 123.12939453 89.18652344 C123.12859894 90.06999451 123.12780334 90.95346558 123.12698364 91.8637085 C123 94 123 94 122 96 C81.74 96 41.48 96 0 96 C0 76 0 76 1 75 C4.13559886 74.90465042 7.24913613 74.87449121 10.38500977 74.88647461 C11.86289474 74.88625557 11.86289474 74.88625557 13.37063599 74.8860321 C16.64424807 74.88673168 19.91780404 74.89452615 23.19140625 74.90234375 C25.45442168 74.90420777 27.71743751 74.90563175 29.98045349 74.90663147 C35.94978948 74.9104579 41.91910132 74.92028925 47.88842773 74.93133545 C53.97444329 74.94154688 60.06046273 74.94612851 66.14648438 74.95117188 C78.09766689 74.96191141 90.04883144 74.97898932 102 75 C102 69.39 102 63.78 102 58 C68.34 58 34.68 58 0 58 C0 38.86 0 19.72 0 0 Z " fill="#F3F3F3" transform="translate(674,25)"/>
<path d="M0 0 C1.18613892 0.00785522 1.18613892 0.00785522 2.39624023 0.01586914 C3.67724609 0.02070313 3.67724609 0.02070313 4.98413086 0.02563477 C5.88196289 0.03401367 6.77979492 0.04239258 7.70483398 0.05102539 C8.6065332 0.05553711 9.50823242 0.06004883 10.43725586 0.06469727 C12.67234712 0.07652315 14.90730835 0.09300319 17.14233398 0.11352539 C17.26282446 7.04172746 16.38475564 13.28020631 15.14233398 20.11352539 C21.74233398 20.44352539 28.34233398 20.77352539 35.14233398 21.11352539 C36.13233398 14.18352539 37.12233398 7.25352539 38.14233398 0.11352539 C44.74233398 0.11352539 51.34233398 0.11352539 58.14233398 0.11352539 C58.14233398 4.94503693 58.0131696 8.78252077 57.20483398 13.42602539 C57.03081055 14.4534082 56.85678711 15.48079102 56.67749023 16.53930664 C56.14233398 19.11352539 56.14233398 19.11352539 55.14233398 21.11352539 C63.06233398 21.11352539 70.98233398 21.11352539 79.14233398 21.11352539 C79.14233398 27.05352539 79.14233398 32.99352539 79.14233398 39.11352539 C70.23233398 39.11352539 61.32233398 39.11352539 52.14233398 39.11352539 C51.81233398 43.07352539 51.48233398 47.03352539 51.14233398 51.11352539 C50.81233398 53.09352539 50.48233398 55.07352539 50.14233398 57.11352539 C58.06233398 57.11352539 65.98233398 57.11352539 74.14233398 57.11352539 C74.14233398 62.72352539 74.14233398 68.33352539 74.14233398 74.11352539 C65.23233398 74.11352539 56.32233398 74.11352539 47.14233398 74.11352539 C46.56774017 79.06310607 46.56774017 79.06310607 46.00610352 84.01416016 C45.9298877 84.64636475 45.85367188 85.27856934 45.77514648 85.92993164 C45.70183105 86.56358643 45.62851562 87.19724121 45.55297852 87.85009766 C44.98340947 90.98949994 44.0188733 94.04563777 43.14233398 97.11352539 C36.87233398 97.11352539 30.60233398 97.11352539 24.14233398 97.11352539 C24.61443201 89.00917592 25.36508659 82.11113865 27.14233398 74.11352539 C20.21233398 74.11352539 13.28233398 74.11352539 6.14233398 74.11352539 C5.93737305 75.69004883 5.73241211 77.26657227 5.52124023 78.89086914 C5.24932685 80.94428397 4.97717938 82.99766781 4.70483398 85.05102539 C4.57012695 86.09194336 4.43541992 87.13286133 4.29663086 88.20532227 C4.16450195 89.19467773 4.03237305 90.1840332 3.89624023 91.20336914 C3.71557007 92.57803345 3.71557007 92.57803345 3.53125 93.98046875 C3.14233398 96.11352539 3.14233398 96.11352539 2.14233398 97.11352539 C0.72663275 97.2000415 -0.69326102 97.22057443 -2.11157227 97.21118164 C-2.96557617 97.20795898 -3.81958008 97.20473633 -4.69946289 97.20141602 C-5.59729492 97.19303711 -6.49512695 97.1846582 -7.42016602 97.17602539 C-8.32186523 97.17151367 -9.22356445 97.16700195 -10.15258789 97.16235352 C-12.38767915 97.15052764 -14.62264038 97.13404759 -16.85766602 97.11352539 C-18.17963095 94.46959553 -17.65305956 93.20550503 -17.08032227 90.32446289 C-16.91540283 89.47674316 -16.7504834 88.62902344 -16.58056641 87.75561523 C-16.36263428 86.67747559 -16.14470215 85.59933594 -15.92016602 84.48852539 C-15.23954102 81.06477539 -14.55891602 77.64102539 -13.85766602 74.11352539 C-21.11766602 74.11352539 -28.37766602 74.11352539 -35.85766602 74.11352539 C-35.85766602 68.50352539 -35.85766602 62.89352539 -35.85766602 57.11352539 C-27.93766602 56.78352539 -20.01766602 56.45352539 -11.85766602 56.11352539 C-10.86766602 50.50352539 -9.87766602 44.89352539 -8.85766602 39.11352539 C-16.11766602 39.11352539 -23.37766602 39.11352539 -30.85766602 39.11352539 C-30.87829102 36.32915039 -30.89891602 33.54477539 -30.92016602 30.67602539 C-30.92927002 29.79760986 -30.93837402 28.91919434 -30.94775391 28.01416016 C-30.95489692 26.04706565 -30.90798495 24.07998918 -30.85766602 22.11352539 C-29.14323383 20.3990932 -26.85321361 20.88299572 -24.51000977 20.79711914 C-23.43041992 20.75522461 -22.35083008 20.71333008 -21.23852539 20.67016602 C-20.1022168 20.63084961 -18.9659082 20.5915332 -17.79516602 20.55102539 C-16.08490234 20.48625 -16.08490234 20.48625 -14.34008789 20.42016602 C-11.51274406 20.313697 -8.68530863 20.21168332 -5.85766602 20.11352539 C-5.77202393 19.5431958 -5.68638184 18.97286621 -5.59814453 18.38525391 C-5.20973801 15.81484723 -4.81503773 13.24544645 -4.42016602 10.67602539 C-4.28545898 9.77819336 -4.15075195 8.88036133 -4.01196289 7.95532227 C-3.87983398 7.10131836 -3.74770508 6.24731445 -3.61157227 5.36743164 C-3.4309021 4.18129272 -3.4309021 4.18129272 -3.24658203 2.97119141 C-2.73039857 0.5056296 -2.53651698 0.15501122 0 0 Z M11.14233398 39.11352539 C10.81233398 41.15540039 10.48233398 43.19727539 10.14233398 45.30102539 C9.95670898 46.44958008 9.77108398 47.59813477 9.57983398 48.78149414 C9.0338474 52.37966183 9.0338474 52.37966183 9.14233398 57.11352539 C16.07233398 57.11352539 23.00233398 57.11352539 30.14233398 57.11352539 C30.47233398 55.44290039 30.80233398 53.77227539 31.14233398 52.05102539 C31.32795898 51.11129883 31.51358398 50.17157227 31.70483398 49.20336914 C32.30589429 45.47849133 32.30589429 45.47849133 32.14233398 39.11352539 C25.21233398 39.11352539 18.28233398 39.11352539 11.14233398 39.11352539 Z " fill="#E41332" transform="translate(578.857666015625,24.886474609375)"/>
<path d="M0 0 C1.1402916 -0.00262848 1.1402916 -0.00262848 2.30361938 -0.00531006 C4.79309431 -0.00967888 7.28249713 -0.00680999 9.77197266 -0.00341797 C11.50835178 -0.00409202 13.24473082 -0.00506289 14.98110962 -0.00631714 C18.60720728 -0.007787 22.23328022 -0.00566087 25.859375 -0.00097656 C30.51686231 0.00474592 35.17429232 0.00142139 39.83177757 -0.00454903 C43.41069984 -0.00815209 46.98960837 -0.00701768 50.56853104 -0.00442123 C52.28701408 -0.00375258 54.00549835 -0.00457826 55.72397995 -0.00690079 C58.11549981 -0.00942588 60.50692476 -0.00558997 62.8984375 0 C63.97058502 -0.00303635 63.97058502 -0.00303635 65.06439209 -0.00613403 C69.94676699 0.01512637 69.94676699 0.01512637 71.06103516 1.12939453 C71.15963647 2.53288188 71.19182452 3.9411993 71.19384766 5.34814453 C71.19513672 6.19763672 71.19642578 7.04712891 71.19775391 7.92236328 C71.19388672 8.81568359 71.19001953 9.70900391 71.18603516 10.62939453 C71.18990234 11.52271484 71.19376953 12.41603516 71.19775391 13.33642578 C71.19646484 14.18591797 71.19517578 15.03541016 71.19384766 15.91064453 C71.19271973 16.69503906 71.1915918 17.47943359 71.19042969 18.28759766 C71.06103516 20.12939453 71.06103516 20.12939453 70.06103516 21.12939453 C67.68564898 21.23841735 65.33826883 21.28361325 62.96191406 21.28710938 C61.8470311 21.29473045 61.8470311 21.29473045 60.70962524 21.30250549 C59.0885093 21.31323604 57.46737828 21.32184561 55.846241 21.32862473 C53.27228311 21.3404021 50.6984939 21.35985753 48.12460327 21.38174438 C40.80350459 21.44335901 33.48241778 21.4971838 26.16113281 21.53076172 C21.68591263 21.55184057 17.21099111 21.58726174 12.73594284 21.63151932 C11.03692547 21.64559076 9.33785515 21.65438153 7.6387825 21.6575737 C-9.78668384 21.47351757 -9.78668384 21.47351757 -24.93896484 29.12939453 C-30.67991794 37.1029405 -31.48374439 45.6975466 -30.41162109 55.29736328 C-29.31079104 61.89324581 -27.3590705 66.88757271 -21.93896484 71.12939453 C-14.74566979 75.00069514 -8.36993864 76.27084434 -0.22705078 76.31884766 C0.53285156 76.32714096 1.29275391 76.33543427 2.07568359 76.34397888 C3.71856912 76.36131988 5.36147856 76.37650268 7.00440216 76.38975525 C9.60112347 76.4108432 12.19772351 76.43785687 14.79437256 76.46643066 C21.23817888 76.5361346 27.68207074 76.59579592 34.12597656 76.65545654 C39.58092337 76.70630332 45.03580212 76.76107432 50.49065399 76.8212738 C53.0549673 76.84791912 55.61928679 76.8686839 58.18365479 76.88928223 C59.74467274 76.90587551 61.30568778 76.92274648 62.86669922 76.93994141 C63.58460632 76.94412582 64.30251343 76.94831024 65.04217529 76.95262146 C69.94718085 77.01554022 69.94718085 77.01554022 71.06103516 78.12939453 C71.15963647 79.53288188 71.19182452 80.9411993 71.19384766 82.34814453 C71.19513672 83.19763672 71.19642578 84.04712891 71.19775391 84.92236328 C71.19388672 85.81568359 71.19001953 86.70900391 71.18603516 87.62939453 C71.18990234 88.52271484 71.19376953 89.41603516 71.19775391 90.33642578 C71.19646484 91.18591797 71.19517578 92.03541016 71.19384766 92.91064453 C71.19271973 93.69503906 71.1915918 94.47943359 71.19042969 95.28759766 C71.06103516 97.12939453 71.06103516 97.12939453 70.06103516 98.12939453 C67.80954502 98.23441517 65.55470948 98.26797169 63.30078125 98.2746582 C62.59321182 98.27801682 61.8856424 98.28137543 61.15663147 98.28483582 C58.79922762 98.29438957 56.44189472 98.29629245 54.08447266 98.29736328 C52.44031749 98.30057755 50.79616262 98.30394175 49.15200806 98.30744934 C45.69003642 98.31345491 42.22808977 98.31528826 38.76611328 98.31469727 C34.36985782 98.31459664 29.97376753 98.3281379 25.57755089 98.34546947 C22.1713287 98.35670724 18.76514461 98.35861275 15.35890579 98.35808754 C13.74130316 98.35925428 12.12369911 98.36360103 10.50611496 98.37141991 C-8.37270349 98.45398366 -26.71020562 97.81963958 -41.06787109 84.09423828 C-51.05602145 73.66462272 -53.38328903 60.59179956 -53.375 46.59301758 C-53.08287222 33.71567543 -49.22049248 22.44119879 -40.06005859 13.24267578 C-29.04606868 2.96151494 -14.76632841 -0.04254145 0 0 Z " fill="#F2F2F2" transform="translate(52.93896484375,23.87060546875)"/>
<path d="M0 0 C9.91086847 -0.06816278 19.82157763 -0.12303721 29.73262882 -0.15543652 C34.33624645 -0.17099768 38.93969343 -0.19205817 43.54321289 -0.22631836 C47.99770691 -0.25925661 52.45203828 -0.27692451 56.90664482 -0.28463173 C58.59404493 -0.29011412 60.28143759 -0.30081689 61.96876717 -0.31719017 C80.41153103 -0.48880207 97.63753015 1.39560613 111.65625 14.5546875 C121.31481848 24.85387531 123.34188133 38.49132465 122.97631836 52.14550781 C122.33211228 65.1289769 118.52877869 77.09744562 108.875 86.1875 C93.67159629 98.28954419 76.04271464 98.15872985 57.6171875 98.09765625 C55.94996178 98.09578772 54.2827355 98.09436587 52.61550903 98.09336853 C48.25905807 98.0895776 43.90264123 98.07977715 39.54620361 98.06866455 C35.08809877 98.05837622 30.62998833 98.05385511 26.171875 98.04882812 C17.44789937 98.03815131 8.72395788 98.02058284 0 98 C0 91.07 0 84.14 0 77 C2.28542725 76.98018066 4.57085449 76.96036133 6.92553711 76.93994141 C14.50123803 76.87284637 22.07680501 76.79521022 29.65235043 76.71247292 C34.24256848 76.66266061 38.8327652 76.61632996 43.4230957 76.578125 C47.85820897 76.54108098 52.29313681 76.49467072 56.72809029 76.44193649 C58.41480804 76.42349362 60.10156538 76.40834893 61.78834343 76.39665604 C78.9301334 76.43196711 78.9301334 76.43196711 94 69 C100.28843237 62.54608256 100.41494366 55.32881084 100.35913086 46.83496094 C100.20923975 40.67625524 99.74763434 35.11773722 96 30 C86.10937709 20.58412699 72.78554134 21.6729984 60.05859375 21.5859375 C58.32266849 21.56720228 56.58675212 21.54762716 54.85084534 21.5272522 C50.30867781 21.47617341 45.76648084 21.43641873 41.22418213 21.39910889 C36.57841859 21.35891622 31.93277497 21.30789391 27.28710938 21.2578125 C18.19148259 21.16134074 9.09580527 21.07784741 0 21 C0 14.07 0 7.14 0 0 Z " fill="#F2F2F2" transform="translate(270,24)"/>
<path d="M0 0 C0.89874816 0.00092179 1.79749632 0.00184359 2.72347927 0.00279331 C3.75138073 0.00141865 4.77928219 0.00004398 5.83833218 -0.00137234 C6.975527 0.00222294 8.11272182 0.00581821 9.2843771 0.00952244 C10.47445873 0.00937641 11.66454037 0.00923038 12.89068508 0.00907993 C16.16326569 0.00965889 19.43580402 0.01468801 22.70837617 0.02165389 C26.1250196 0.02788815 29.54166379 0.02849128 32.95831203 0.0296793 C39.43232563 0.0327924 45.90632242 0.0410055 52.3803286 0.05102879 C59.74901216 0.06219058 67.11769651 0.06770054 74.48638642 0.07272422 C89.64814488 0.08318813 104.80988662 0.10098765 119.97163296 0.12304783 C119.97163296 7.05304783 119.97163296 13.98304783 119.97163296 21.12304783 C86.97163296 21.12304783 53.97163296 21.12304783 19.97163296 21.12304783 C19.97163296 26.73304783 19.97163296 32.34304783 19.97163296 38.12304783 C52.64163296 38.12304783 85.31163296 38.12304783 118.97163296 38.12304783 C118.97163296 44.72304783 118.97163296 51.32304783 118.97163296 58.12304783 C117.34622913 59.74845165 115.5475697 59.24907252 113.3024435 59.25003147 C111.78800152 59.25426121 111.78800152 59.25426121 110.24296474 59.25857639 C108.56758129 59.25554005 108.56758129 59.25554005 106.85835171 59.25244236 C105.10489941 59.25507084 105.10489941 59.25507084 103.31602383 59.25775242 C100.10122856 59.26141047 96.88647418 59.26053759 93.6716795 59.25737333 C90.31422493 59.25484925 86.95677318 59.25718741 83.5993185 59.2587595 C77.96007195 59.26058105 72.32083847 59.25817526 66.68159389 59.25341892 C60.15313036 59.24797633 53.62469805 59.24973899 47.09623528 59.25524533 C41.50048937 59.25977686 35.90475289 59.26042681 30.30900574 59.25780666 C26.96276811 59.25624411 23.61654519 59.25604952 20.27030849 59.25934315 C16.54182191 59.26186797 12.81339623 59.25803147 9.08491421 59.25244236 C7.96799191 59.25446659 6.8510696 59.25649082 5.70030117 59.25857639 C4.69067318 59.25575657 3.68104519 59.25293674 2.64082241 59.25003147 C1.75812176 59.24965445 0.8754211 59.24927742 -0.03402805 59.24888897 C-2.02836704 59.12304783 -2.02836704 59.12304783 -3.02836704 58.12304783 C-3.12730482 56.34858774 -3.15635797 54.57018532 -3.15776157 52.7929697 C-3.16091373 51.65509007 -3.1640659 50.51721043 -3.16731358 49.34484959 C-3.16528934 48.10634251 -3.16326511 46.86783543 -3.16117954 45.59179783 C-3.16213627 44.33040989 -3.16309299 43.06902195 -3.16407871 41.76941013 C-3.16476079 39.09607645 -3.16340234 36.42283346 -3.15873814 33.74951267 C-3.15304085 30.31598092 -3.15632005 26.88252733 -3.1623106 23.44899845 C-3.16678466 20.1840954 -3.16365588 16.9192019 -3.16117954 13.65429783 C-3.16320377 12.41579075 -3.165228 11.17728367 -3.16731358 9.90124607 C-3.16416142 8.76336643 -3.16100925 7.62548679 -3.15776157 6.45312595 C-3.15696598 5.44576389 -3.15617039 4.43840183 -3.15535069 3.40051365 C-2.99308014 0.49017332 -2.90553114 0.17625967 0 0 Z " fill="#EDEDED" transform="translate(407.0283670425415,23.876952171325684)"/>
<path d="M0 0 C0 6.27 0 12.54 0 19 C-2.64 19.99 -5.28 20.98 -8 22 C-14.36019676 24.67750941 -19.27264884 27.05953408 -23 33 C-26.37525758 42.00068688 -26.50013604 53.21884348 -22.90234375 62.171875 C-19.95820232 68.13662907 -16.06489671 70.73900651 -10 73 C7.03738236 78.25845134 28.34656828 79.32773532 44.9375 71.6875 C50.98346403 68.12603265 54.18257712 63.83319257 56 57 C56.29839062 54.0362936 56.32492445 51.10189785 56.3125 48.125 C56.33666992 46.97837891 56.33666992 46.97837891 56.36132812 45.80859375 C56.36699939 39.12783909 55.04696562 33.64901434 50.875 28.25 C45.14104327 23.7625556 38.97014188 21.99146911 32 20 C32 13.07 32 6.14 32 -1 C47.84432007 0.76048001 58.92992274 5.57311544 69.2421875 17.64453125 C78.05554371 29.45442857 78.1048563 44.90203367 77 59 C74.79031148 71.65548879 68.43007651 81.54320322 58 89 C38.75879773 100.57089987 12.13119636 100.71822603 -9.30078125 95.96875 C-22.92919658 92.39974578 -33.3451591 86.13855876 -40.59765625 73.80078125 C-48.01099825 58.99474722 -47.34816501 41.76529175 -42.3125 26.3125 C-37.9985712 15.26502182 -30.05912385 8.28603711 -19.5625 3.25 C-12.71468155 0.305723 -7.39056068 -1.47811214 0 0 Z " fill="#F3F3F3" transform="translate(181,25)"/>
<path d="M0 0 C6.27 0 12.54 0 19 0 C19.87140625 1.62164063 20.7428125 3.24328125 21.640625 4.9140625 C35.56073946 30.87789946 35.56073946 30.87789946 49.875 56.625 C52.84629115 61.86220051 55.61047551 67.15628784 58.25 72.5703125 C61.14224881 78.2386037 64.27249174 83.77850027 67.39404297 89.32324219 C67.85955566 90.15758789 68.32506836 90.99193359 68.8046875 91.8515625 C69.43866455 92.97812256 69.43866455 92.97812256 70.08544922 94.12744141 C71 96 71 96 71 98 C62.75 98 54.5 98 46 98 C38.23214286 84.60714286 38.23214286 84.60714286 35.25 78.5 C30.50291257 68.82522943 25.19899969 59.43679849 20 50 C19.50258301 49.09588379 19.00516602 48.19176758 18.49267578 47.26025391 C17.10192244 44.73453402 15.70809683 42.2105463 14.3125 39.6875 C13.67973145 38.54063721 13.67973145 38.54063721 13.03417969 37.37060547 C11.30449106 33.98057904 11.30449106 33.98057904 9 31 C8.42052612 32.0837793 8.42052612 32.0837793 7.8293457 33.18945312 C-25.49091835 95.49091835 -25.49091835 95.49091835 -28 98 C-29.70772358 98.08713831 -31.41898649 98.10700007 -33.12890625 98.09765625 C-34.68061523 98.09282227 -34.68061523 98.09282227 -36.26367188 98.08789062 C-37.35228516 98.07951172 -38.44089844 98.07113281 -39.5625 98.0625 C-41.2012207 98.05573242 -41.2012207 98.05573242 -42.87304688 98.04882812 C-45.58208495 98.03699826 -48.29101599 98.02051543 -51 98 C-51.33 97.34 -51.66 96.68 -52 96 C-50.83520508 93.36816406 -50.83520508 93.36816406 -49.01953125 90.015625 C-48.69547302 89.41209198 -48.37141479 88.80855896 -48.03753662 88.18673706 C-46.97019416 86.20357591 -45.89152148 84.22682736 -44.8125 82.25 C-44.07283551 80.88169927 -43.33382578 79.5130444 -42.59545898 78.14404297 C-40.74749209 74.72242091 -38.8901576 71.30599188 -37.02954102 67.89123535 C-35.54090915 65.15666416 -34.05980152 62.41803205 -32.578125 59.6796875 C-27.80417994 50.875671 -22.95371725 42.12031618 -18.01000977 33.41064453 C-15.37636894 28.74243917 -12.97170653 23.987332 -10.6171875 19.171875 C-7.29791544 12.66161193 -3.6131113 6.35031682 0 0 Z " fill="#F3F3F3" transform="translate(993,24)"/>
<path d="M0 0 C0.89874816 0.00092179 1.79749632 0.00184359 2.72347927 0.00279331 C3.75138073 0.00141865 4.77928219 0.00004398 5.83833218 -0.00137234 C6.975527 0.00222294 8.11272182 0.00581821 9.2843771 0.00952244 C10.47445873 0.00937641 11.66454037 0.00923038 12.89068508 0.00907993 C16.16326569 0.00965889 19.43580402 0.01468801 22.70837617 0.02165389 C26.1250196 0.02788815 29.54166379 0.02849128 32.95831203 0.0296793 C39.43232563 0.0327924 45.90632242 0.0410055 52.3803286 0.05102879 C59.74901216 0.06219058 67.11769651 0.06770054 74.48638642 0.07272422 C89.64814488 0.08318813 104.80988662 0.10098765 119.97163296 0.12304783 C119.97163296 7.05304783 119.97163296 13.98304783 119.97163296 21.12304783 C103.47163296 21.12304783 86.97163296 21.12304783 69.97163296 21.12304783 C69.98323452 26.59769627 69.99483608 32.0723447 70.00678921 37.71289158 C70.01189601 41.17187713 70.01670979 44.63085807 70.02046108 48.0898447 C70.02644933 53.58554132 70.03354915 59.08122134 70.04707241 64.57690525 C70.05790196 69.00538471 70.06390993 73.43384639 70.0665102 77.86233807 C70.06836433 79.5557041 70.07198471 81.24906912 70.07736301 82.94242764 C70.08457435 85.30596015 70.08562386 87.66941828 70.08515835 90.03295994 C70.08875362 90.74002079 70.0923489 91.44708164 70.09605312 92.17556858 C70.08568512 97.00899567 70.08568512 97.00899567 68.97163296 98.12304783 C62.04163296 98.12304783 55.11163296 98.12304783 47.97163296 98.12304783 C47.97163296 72.71304783 47.97163296 47.30304783 47.97163296 21.12304783 C31.56158246 21.16265685 31.56158246 21.16265685 15.1515646 21.21313572 C13.10330666 21.2160547 11.05504815 21.2186033 9.00678921 21.22070408 C7.93231533 21.22582005 6.85784145 21.23093601 5.75080776 21.23620701 C4.73579189 21.23632786 3.72077602 21.23644871 2.6750021 21.23657322 C1.34596607 21.23990414 1.34596607 21.23990414 -0.00991917 21.24330235 C-2.02836704 21.12304783 -2.02836704 21.12304783 -3.02836704 20.12304783 C-3.12696835 18.71956048 -3.15915641 17.31124306 -3.16117954 15.90429783 C-3.16246861 15.05480564 -3.16375767 14.20531345 -3.16508579 13.33007908 C-3.16121861 12.43675877 -3.15735142 11.54343845 -3.15336704 10.62304783 C-3.15723423 9.72972752 -3.16110142 8.8364072 -3.16508579 7.91601658 C-3.16379673 7.06652439 -3.16250767 6.2170322 -3.16117954 5.34179783 C-3.16005161 4.5574033 -3.15892368 3.77300877 -3.15776157 2.9648447 C-2.97324784 0.33848322 -2.62379874 0.1591688 0 0 Z " fill="#F0F0F0" transform="translate(811.0283670425415,23.876952171325684)"/>
<path d="M0 0 C0.89137382 0.00092179 1.78274763 0.00184359 2.70113277 0.00279331 C3.72062008 0.00141865 4.74010738 0.00004398 5.79048824 -0.00137234 C6.91833233 0.00222294 8.04617641 0.00581821 9.20819759 0.00952244 C10.38852566 0.00937641 11.56885372 0.00923038 12.7849493 0.00907993 C16.03067141 0.00965888 19.27635088 0.01468796 22.52206445 0.02165389 C25.91068065 0.02788821 29.29929761 0.02849129 32.68791866 0.0296793 C39.10880837 0.03279238 45.52968114 0.04100546 51.95056337 0.05102879 C59.25878857 0.06219063 66.56701457 0.06770055 73.87524617 0.07272422 C88.91259058 0.0831881 103.94991813 0.10098759 118.98725033 0.12304783 C118.98725033 7.05304783 118.98725033 13.98304783 118.98725033 21.12304783 C85.98725033 21.12304783 52.98725033 21.12304783 18.98725033 21.12304783 C18.98725033 46.53304783 18.98725033 71.94304783 18.98725033 98.12304783 C12.05725033 98.12304783 5.12725033 98.12304783 -2.01274967 98.12304783 C-3.91026871 96.22552879 -3.13946282 93.44247012 -3.14827824 90.9174509 C-3.14625401 90.02494633 -3.14422977 89.13244175 -3.1421442 88.21289158 C-3.14389652 87.27800907 -3.14564884 86.34312656 -3.14745426 85.37991428 C-3.15187441 82.2734402 -3.14893421 79.16702254 -3.14556217 76.06054783 C-3.14623516 73.91202884 -3.14720515 71.76350992 -3.14846134 69.61499119 C-3.14993854 65.10562511 -3.14778307 60.5962788 -3.14312077 56.08691502 C-3.13742347 50.29256206 -3.14070236 44.49825541 -3.14669323 38.70390415 C-3.15029826 34.26541892 -3.14916052 29.82694476 -3.14656544 25.38845921 C-3.14589601 23.25131315 -3.14672514 21.11416611 -3.14904499 18.97702122 C-3.15157057 15.99572156 -3.14773226 13.01449803 -3.1421442 10.03320408 C-3.14416843 9.1406995 -3.14619267 8.24819492 -3.14827824 7.32864475 C-3.12335889 0.19094403 -3.12335889 0.19094403 0 0 Z " fill="#F1F1F1" transform="translate(1082.012749671936,23.876952171325684)"/>
<path d="M0 0 C39.93 0 79.86 0 121 0 C121 6.93 121 13.86 121 21 C88 21 55 21 21 21 C21 46.41 21 71.82 21 98 C14.07 98 7.14 98 0 98 C0 65.66 0 33.32 0 0 Z " fill="#F3F3F3" transform="translate(1214,24)"/>
<path d="M0 0 C0.89137382 0.00092179 1.78274763 0.00184359 2.70113277 0.00279331 C3.72062008 0.00141865 4.74010738 0.00004398 5.79048824 -0.00137234 C6.91833233 0.00222294 8.04617641 0.00581821 9.20819759 0.00952244 C10.38852566 0.00937641 11.56885372 0.00923038 12.7849493 0.00907993 C16.03067141 0.00965888 19.27635088 0.01468796 22.52206445 0.02165389 C25.91068065 0.02788821 29.29929761 0.02849129 32.68791866 0.0296793 C39.10880837 0.03279238 45.52968114 0.04100546 51.95056337 0.05102879 C59.25878857 0.06219063 66.56701457 0.06770055 73.87524617 0.07272422 C88.91259058 0.0831881 103.94991813 0.10098759 118.98725033 0.12304783 C118.98725033 7.05304783 118.98725033 13.98304783 118.98725033 21.12304783 C103.22808235 21.14616703 87.46892035 21.16402716 71.70973969 21.17486 C64.3929763 21.18002289 57.07622363 21.18706545 49.75946712 21.19848728 C43.38442015 21.20843434 37.00938092 21.21490131 30.6343264 21.21713632 C27.25677019 21.21844339 23.87923617 21.22152902 20.50168705 21.22877789 C16.7371769 21.23598396 12.97271347 21.23703895 9.20819759 21.23657322 C8.08035351 21.2401685 6.95250942 21.24376377 5.79048824 21.24746799 C4.26125729 21.245406 4.26125729 21.245406 2.70113277 21.24330235 C1.80975896 21.24422414 0.91838514 21.24514593 0 21.24609566 C-2.01274967 21.12304783 -2.01274967 21.12304783 -3.01274967 20.12304783 C-3.11135098 18.71956048 -3.14353904 17.31124306 -3.14556217 15.90429783 C-3.14685123 15.05480564 -3.1481403 14.20531345 -3.14946842 13.33007908 C-3.14560123 12.43675877 -3.14173405 11.54343845 -3.13774967 10.62304783 C-3.14161686 9.72972752 -3.14548405 8.8364072 -3.14946842 7.91601658 C-3.14817936 7.06652439 -3.1468903 6.2170322 -3.14556217 5.34179783 C-3.14443424 4.5574033 -3.14330631 3.77300877 -3.1421442 2.9648447 C-2.95832076 0.34830871 -2.61403509 0.15980693 0 0 Z " fill="#F2F2F2" transform="translate(407.01274967193604,100.87695217132568)"/>
<path d="M0 0 C29.37 0 58.74 0 89 0 C89 6.93 89 13.86 89 21 C59.63 21 30.26 21 0 21 C0 14.07 0 7.14 0 0 Z " fill="#EBEBEB" transform="translate(1112,62)"/>
<path d="M0 0 C0.81926971 0.00359528 1.63853943 0.00719055 2.4826355 0.01089478 C3.34109573 0.01074875 4.19955597 0.01060272 5.08403015 0.01045227 C7.93559249 0.0111517 10.78709036 0.01894547 13.63864136 0.02676392 C15.61019353 0.02862799 17.58174615 0.03005194 19.55329895 0.03105164 C24.75324778 0.03487765 29.95316886 0.04470865 35.15310669 0.05575562 C40.45492172 0.06596794 45.75674121 0.07054887 51.05856323 0.07559204 C61.4693847 0.08633084 71.88017826 0.10392831 82.29098511 0.12442017 C82.29098511 7.05442017 82.29098511 13.98442017 82.29098511 21.12442017 C52.92098511 21.12442017 23.55098511 21.12442017 -6.70901489 21.12442017 C-6.70901489 0.01243245 -6.70901489 0.01243245 0 0 Z " fill="#EBEBEB" transform="translate(1252.7090148925781,61.875579833984375)"/>
<path d="M0 0 C6.27 0 12.54 0 19 0 C20.69668207 1.69668207 20.11968993 3.81132018 20.12442017 6.07440186 C20.12082489 6.80016418 20.11722961 7.52592651 20.11352539 8.27368164 C20.11367142 9.03460617 20.11381744 9.7955307 20.1139679 10.57951355 C20.11326862 13.10642298 20.10547555 15.63325962 20.09765625 18.16015625 C20.09579212 19.9075059 20.0943682 21.65485607 20.09336853 23.40220642 C20.08954293 28.01031934 20.07971229 32.61840095 20.06866455 37.22650146 C20.05845134 41.92508521 20.0538711 46.62367399 20.04882812 51.32226562 C20.03809005 60.54819308 20.02049292 69.77408904 20 79 C13.4 79 6.8 79 0 79 C0 52.93 0 26.86 0 0 Z " fill="#FAFAFA" transform="translate(187,0)"/>
</svg>
