<svg width="92" height="66" viewBox="0 0 92 66" fill="none" xmlns="http://www.w3.org/2000/svg">
<g clip-path="url(#clip0_584_320)">
<path d="M79 36.3602C79 32.2906 73.9395 28.4338 66.1808 26.0422C67.9713 18.0783 67.1755 11.7423 63.6692 9.71374C62.861 9.23791 61.916 9.01252 60.884 9.01252V11.8049C61.456 11.8049 61.916 11.9176 62.3015 12.1305C63.9925 13.1072 64.7261 16.8261 64.1541 21.6095C64.0173 22.7865 63.7935 24.0262 63.52 25.2909C61.083 24.6898 58.4221 24.2265 55.6245 23.926C53.946 21.6095 52.2053 19.5058 50.4521 17.6651C54.5055 13.871 58.3102 11.7924 60.8965 11.7924V9C57.4772 9 53.001 11.4543 48.4751 15.7117C43.9492 11.4793 39.4731 9.05009 36.0538 9.05009V11.8425C38.6276 11.8425 42.4448 13.9085 46.4982 17.6776C44.7574 19.5183 43.0167 21.6095 41.363 23.926C38.553 24.2265 35.8922 24.6898 33.4552 25.3034C33.1692 24.0512 32.9578 22.8366 32.8086 21.6721C32.2242 16.8887 32.9454 13.1698 34.6239 12.1805C34.9969 11.9551 35.4819 11.855 36.0538 11.855V9.06261C35.0094 9.06261 34.0644 9.288 33.2438 9.76383C29.7499 11.7924 28.9666 18.1159 30.7695 26.0547C23.0357 28.4589 18 32.3031 18 36.3602C18 40.4297 23.0605 44.2865 30.8192 46.6781C29.0287 54.642 29.8245 60.978 33.3308 63.0066C34.139 63.4824 35.084 63.7078 36.1284 63.7078C39.5477 63.7078 44.0238 61.2535 48.5497 56.9961C53.0756 61.2285 57.5518 63.6577 60.9711 63.6577C62.0155 63.6577 62.9605 63.4323 63.7811 62.9565C67.275 60.9279 68.0583 54.6044 66.2554 46.6656C73.9643 44.2739 79 40.4172 79 36.3602ZM62.8112 28.0081C62.3512 29.6234 61.7792 31.2888 61.1327 32.9542C60.6229 31.9525 60.0883 30.9507 59.5039 29.949C58.9319 28.9472 58.3227 27.9705 57.7134 27.0189C59.479 27.2818 61.1824 27.6074 62.8112 28.0081ZM57.1166 41.3438C56.1468 43.0343 55.1521 44.6371 54.1201 46.1272C52.2674 46.2899 50.3899 46.3776 48.5 46.3776C46.6225 46.3776 44.745 46.2899 42.9048 46.1397C41.8728 44.6496 40.8657 43.0593 39.8958 41.3814C38.9509 39.741 38.0929 38.0756 37.3096 36.3977C38.0805 34.7198 38.9509 33.0419 39.8834 31.4015C40.8532 29.7111 41.8479 28.1083 42.8799 26.6182C44.7326 26.4554 46.6101 26.3677 48.5 26.3677C50.3775 26.3677 52.255 26.4554 54.0952 26.6057C55.1272 28.0958 56.1343 29.686 57.1042 31.364C58.0491 33.0043 58.9071 34.6697 59.6904 36.3476C58.9071 38.0256 58.0491 39.7035 57.1166 41.3438ZM61.1327 39.716C61.8041 41.3939 62.3761 43.0718 62.8486 44.6997C61.2197 45.1004 59.5039 45.4385 57.7258 45.7014C58.3351 44.7372 58.9444 43.748 59.5163 42.7338C60.0883 41.732 60.6229 40.7177 61.1327 39.716ZM48.5249 53.0768C47.3685 51.8747 46.2122 50.5348 45.0683 49.0698C46.1873 49.1199 47.3312 49.1574 48.4876 49.1574C49.6563 49.1574 50.8127 49.1324 51.9442 49.0698C50.8251 50.5348 49.6688 51.8747 48.5249 53.0768ZM39.2742 45.7014C37.5086 45.4385 35.8051 45.1129 34.1763 44.7122C34.6364 43.0969 35.2083 41.4315 35.8549 39.7661C36.3647 40.7678 36.8993 41.7696 37.4837 42.7713C38.0681 43.7731 38.6649 44.7498 39.2742 45.7014ZM48.4627 19.6435C49.619 20.8456 50.7754 22.1855 51.9193 23.6505C50.8002 23.6004 49.6563 23.5629 48.5 23.5629C47.3312 23.5629 46.1749 23.5879 45.0434 23.6505C46.1625 22.1855 47.3188 20.8456 48.4627 19.6435ZM39.2617 27.0189C38.6525 27.9831 38.0432 28.9723 37.4713 29.9866C36.8993 30.9883 36.3647 31.99 35.8549 32.9918C35.1834 31.3139 34.6115 29.6359 34.139 28.0081C35.7678 27.6199 37.4837 27.2818 39.2617 27.0189ZM28.0092 42.6962C23.6076 40.8054 20.7603 38.3261 20.7603 36.3602C20.7603 34.3942 23.6076 31.9024 28.0092 30.0241C29.0785 29.5608 30.2472 29.1476 31.4533 28.7594C32.162 31.2137 33.0946 33.7681 34.2509 36.3852C33.107 38.9897 32.1869 41.5317 31.4906 43.9734C30.2597 43.5852 29.0909 43.1595 28.0092 42.6962ZM34.6985 60.5899C33.0075 59.6132 32.274 55.8942 32.8459 51.1108C32.9827 49.9338 33.2065 48.6941 33.48 47.4294C35.917 48.0305 38.5779 48.4938 41.3755 48.7943C43.054 51.1108 44.7947 53.2145 46.5479 55.0552C42.4945 58.8493 38.6898 60.9279 36.1035 60.9279C35.544 60.9154 35.0715 60.8027 34.6985 60.5899ZM64.1914 51.0482C64.7758 55.8316 64.0546 59.5505 62.3761 60.5398C62.0031 60.7652 61.5181 60.8653 60.9462 60.8653C58.3724 60.8653 54.5552 58.7992 50.5018 55.0302C52.2426 53.1895 53.9833 51.0983 55.637 48.7818C58.447 48.4813 61.1078 48.018 63.5448 47.4044C63.8308 48.6691 64.0546 49.8837 64.1914 51.0482ZM68.9784 42.6962C67.9091 43.1595 66.7403 43.5727 65.5342 43.9609C64.8255 41.5066 63.893 38.9522 62.7367 36.3351C63.8806 33.7306 64.8007 31.1886 65.4969 28.7469C66.7279 29.1351 67.8967 29.5608 68.9908 30.0241C73.3924 31.9149 76.2397 34.3942 76.2397 36.3602C76.2273 38.3261 73.3799 40.8179 68.9784 42.6962Z" fill="white"/>
<path d="M48.4879 42.0826C51.6261 42.0826 54.1701 39.5206 54.1701 36.3602C54.1701 33.1997 51.6261 30.6377 48.4879 30.6377C45.3497 30.6377 42.8057 33.1997 42.8057 36.3602C42.8057 39.5206 45.3497 42.0826 48.4879 42.0826Z" fill="white"/>
</g>
<defs>
<clipPath id="clip0_584_320">
<rect width="62.9984" height="54.9994" fill="white" transform="matrix(1 0 0 -1 17.999 63.9998)"/>
</clipPath>
</defs>
</svg>
