<svg width="158" height="32" viewBox="0 0 158 32" fill="none" xmlns="http://www.w3.org/2000/svg">
<g clip-path="url(#clip0_521_3373)">
<path d="M144.953 22.9069V15.0053H143.015V13.3014L144.953 12.2365V11.5334C144.953 9.40359 146.039 7.99799 148.722 7.99799H151.044V10.6391H148.062V12.2577H152.45V11.704C152.45 9.40359 153.515 7.99799 156.198 7.99799H159.116V10.6391H155.538V12.2577H158.584V15.0053H156.113V22.9069H152.45V15.0053H148.616V22.9069H144.953Z" fill="white"/>
<path d="M134.806 23.1839C132.676 23.1839 131.271 21.9696 131.271 20.0957C131.271 18.3918 131.974 17.2628 134.912 16.7727L137.341 16.3468C138.299 16.1767 138.576 15.9208 138.576 15.3671C138.576 14.7282 138.193 14.3451 136.957 14.3451C135.679 14.3451 135.062 14.8559 135.04 15.7931H131.483C131.59 13.5356 133.571 11.917 136.915 11.917C140.301 11.917 141.941 13.3014 141.941 15.7295V19.9675C141.941 21.0965 142.026 22.0337 142.133 22.9069H138.98C138.874 22.2891 138.81 21.5649 138.81 20.6917C138.278 22.2467 136.957 23.1839 134.806 23.1839ZM134.87 19.6697C134.87 20.4151 135.466 20.7982 136.19 20.7982C137.575 20.7982 138.576 19.8186 138.576 17.9017V17.497C138.044 17.8805 137.575 18.0082 136.893 18.1788L136.297 18.3277C135.253 18.5831 134.87 18.9454 134.87 19.6697Z" fill="white"/>
<path d="M128.056 22.9069C124.797 22.9069 123.775 21.4584 123.775 18.7113V15.0052H121.9V13.3014L124.073 12.3429L125.585 9.68063H127.438V12.2577H130.334V15.0052H127.438V20.0104H129.994V22.9069H128.056Z" fill="white"/>
<path d="M112.141 18.3065C112.247 19.4779 113.015 20.5428 114.995 20.5428C116.805 20.5428 117.487 19.9039 117.487 18.9243C117.487 17.987 116.933 17.5182 115.868 17.3693L112.78 17.0286C110.224 16.7303 108.755 15.2819 108.755 12.8754C108.755 10.2131 110.757 8.38153 114.846 8.38153C119.212 8.38153 120.959 10.4685 121.15 12.9819H117.444C117.295 11.8529 116.444 11.1075 114.846 11.1075C113.398 11.1075 112.546 11.6828 112.546 12.6196C112.546 13.3438 112.972 13.8763 114.058 14.004L116.763 14.281C119.872 14.5793 121.278 16.049 121.278 18.6048C121.278 21.3948 119.532 23.2688 114.931 23.2688C110.267 23.2688 108.648 20.8411 108.499 18.3065H112.141Z" fill="white"/>
<path d="M101.622 23.2476C97.2986 23.2476 95.7441 20.4788 95.7441 17.5611C95.7441 14.4728 97.5333 11.917 101.622 11.917C105.967 11.917 107.352 14.6646 107.352 17.6247C107.352 17.9658 107.331 18.2853 107.288 18.5195H99.3008C99.5138 20.2234 100.366 20.7982 101.708 20.7982C102.794 20.7982 103.454 20.3298 103.752 19.6909H107.309C106.968 21.5225 105.499 23.2476 101.622 23.2476ZM99.3437 16.3896H103.88C103.752 15.0477 103.092 14.3234 101.686 14.3234C100.345 14.3234 99.5778 14.8559 99.3437 16.3896Z" fill="white"/>
<path d="M86.9951 11.917C88.8055 11.917 90.0198 12.5984 90.744 13.7274V7.99799H94.4072V22.9069H90.744V21.4372C90.0198 22.5874 88.8055 23.2476 86.9951 23.2476C83.5026 23.2476 82.1182 20.6065 82.1182 17.5611C82.1182 14.6005 83.5026 11.917 86.9951 11.917ZM85.7813 17.5823C85.7813 19.5632 86.4203 20.3935 88.2306 20.3935C90.1051 20.3935 90.744 19.4779 90.744 17.5823C90.744 15.6866 90.1051 14.7711 88.2306 14.7711C86.4203 14.7711 85.7813 15.6013 85.7813 17.5823Z" fill="white"/>
<path d="M74.8415 23.2476C70.3052 23.2476 68.729 20.4575 68.729 17.5823C68.729 14.7282 70.3052 11.917 74.8415 11.917C79.357 11.917 80.9327 14.7282 80.9327 17.5823C80.9327 20.4363 79.357 23.2476 74.8415 23.2476ZM72.3922 17.5823C72.3922 19.7121 73.0952 20.3935 74.8415 20.3935C76.5666 20.3935 77.2696 19.7121 77.2696 17.5823C77.2696 15.4524 76.5666 14.771 74.8415 14.771C73.0952 14.771 72.3922 15.4524 72.3922 17.5823Z" fill="white"/>
<path d="M59.9365 23.2476C54.463 23.2476 52.418 19.7333 52.418 15.836C52.418 12.0447 54.4842 8.38153 59.9577 8.38153C65.0269 8.38153 67.0291 10.4049 67.3269 14.4728H63.4719C63.3018 12.5559 62.4923 11.4481 60.0218 11.4481C57.4448 11.4481 56.337 12.9178 56.337 15.836C56.337 18.7113 57.3595 20.2022 59.9153 20.2022C62.4499 20.2022 63.3655 19.1372 63.5148 17.071H67.4122C67.0715 21.416 65.1334 23.2476 59.9365 23.2476Z" fill="white"/>
<path fill-rule="evenodd" clip-rule="evenodd" d="M30.8735 10.6986C30.7345 10.8394 30.7345 11.0655 30.8735 11.2063L37.6596 18.0705C39.155 19.5835 39.1541 22.0197 37.6569 23.5314L33.2303 28H47.3992V4H37.4958L30.8735 10.6986ZM27.0623 4L20.3777 10.7623C20.2734 10.8674 20.2734 11.0371 20.3777 11.1426L29.4191 20.2888C29.6975 20.5704 29.6971 21.0234 29.4187 21.3045L22.7868 28H-0.116211V4H13.8293L9.66153 8.24028C8.16888 9.7587 8.17732 12.2013 9.68053 13.7097L21.7594 25.8282C21.865 25.9342 22.0369 25.9342 22.1429 25.8282L26.9933 20.9616C27.0984 20.856 27.0984 20.685 26.9933 20.5794L17.8977 11.454C17.6183 11.1738 17.6165 10.7207 17.8941 10.4383L24.2227 4H27.0623Z" fill="#EB1434"/>
</g>
<defs>
<clipPath id="clip0_521_3373">
<rect width="158" height="32" fill="white"/>
</clipPath>
</defs>
</svg>
