<svg xmlns="http://www.w3.org/2000/svg" width="417" height="419" viewBox="0 0 417 419" version="1.1"><path d="M 202.500 4.983 C 176.455 10.688, 160.874 32.928, 164.829 58.755 C 166.508 69.719, 170.562 77.426, 178.611 84.955 C 186.238 92.090, 192.970 95.487, 202.834 97.178 C 226.019 101.154, 248.563 86.529, 255.414 63.068 C 259.467 49.189, 255.368 31.800, 245.260 19.990 C 241.244 15.299, 231.200 8.861, 224.500 6.683 C 218.228 4.645, 207.742 3.835, 202.500 4.983 M 351.225 161.541 C 316.726 174.057, 307.555 215.414, 333.791 240.164 C 343.027 248.877, 351.337 252.109, 364.571 252.136 C 379.515 252.167, 388.735 248.563, 397.989 239.072 C 408.127 228.675, 412.713 216.533, 411.666 202.867 C 410.939 193.390, 408.520 186.885, 402.680 178.701 C 397.351 171.232, 393.417 168.034, 384.244 163.712 C 378.129 160.830, 376.474 160.509, 366.500 160.262 C 358.495 160.064, 354.336 160.412, 351.225 161.541 M 36.762 169.942 C 15.344 176.789, 1.308 199.367, 4.889 221.210 C 9.977 252.244, 44.265 270.277, 71.500 256.244 C 82.044 250.811, 91.209 240.810, 94.731 230.895 L 96.469 226 128.259 226 L 160.050 226 161.074 228.750 C 165.167 239.736, 170.364 246.670, 178.855 252.471 C 197.382 265.130, 220.323 263.611, 236.702 248.641 C 243.208 242.695, 246.484 237.812, 249.136 230.106 C 254.902 213.356, 250.772 193.501, 239.201 182.336 C 228.869 172.367, 221.368 168.984, 207.962 168.246 C 186.106 167.042, 169.266 178.539, 161.086 200.250 L 160.050 203 128.025 203 C 101.625 203, 96 202.760, 96 201.634 C 96 200.883, 94.412 197.095, 92.472 193.216 C 88.686 185.648, 79.957 176.547, 73.172 173.091 C 62.756 167.786, 47.606 166.475, 36.762 169.942 M 200.725 322.521 C 184.626 326.547, 171.114 338.476, 166.800 352.472 C 161.261 370.437, 166.176 390.757, 178.777 401.990 C 195.712 417.088, 217.759 419.069, 235.940 407.127 C 244.111 401.760, 247.447 397.920, 252.100 388.530 L 256.327 380 288.163 380 C 311.118 380, 320 380.315, 320 381.127 C 320 384.148, 326.719 395.315, 331.323 399.946 C 347.714 416.435, 369.654 419.626, 388.422 408.252 C 414.643 392.362, 419.445 358.796, 398.702 336.392 C 376.776 312.709, 337.977 318.335, 323.487 347.299 C 321.569 351.132, 320 354.883, 320 355.634 C 320 356.760, 314.374 357, 287.969 357 C 258.325 357, 255.899 356.870, 255.424 355.250 C 254.118 350.792, 248.201 340.134, 245.161 336.763 C 234.363 324.790, 215.642 318.790, 200.725 322.521" stroke="none" fill="#040404" fill-rule="evenodd"/><path d="M 120.612 91.034 C 104.306 92.993, 89.159 106.021, 83.446 123 C 80.970 130.359, 80.923 142.617, 83.340 150.500 C 84.352 153.800, 87.503 159.863, 90.342 163.974 C 97.866 174.869, 109.039 181.347, 124.040 183.510 C 135.561 185.171, 152.084 178.787, 161.317 169.107 C 166.521 163.651, 173 152.793, 173 149.529 C 173 148.189, 176.988 148, 205.302 148 L 237.605 148 239.403 153.001 C 242.867 162.632, 248.301 169.584, 256.603 175.003 C 260.801 177.744, 265.983 180.457, 268.118 181.032 L 272 182.077 272 214.070 C 272 243.647, 271.868 246.108, 270.250 246.656 C 255.564 251.630, 244.389 262.018, 239.488 275.250 L 237.728 280 205.503 280 L 173.278 280 171.091 274.285 C 166.990 263.570, 156.509 253.091, 145.177 248.376 C 139.419 245.980, 137.124 245.594, 128.500 245.568 C 116.569 245.532, 110.954 247.182, 102.219 253.291 C 82.084 267.373, 75.767 291.360, 86.575 312.697 C 93.205 325.787, 104.665 334.505, 119.461 337.716 C 126.008 339.137, 128.202 339.205, 134.321 338.176 C 149.302 335.658, 162.966 325.787, 169.472 312.784 C 171.412 308.905, 173 305.117, 173 304.366 C 173 303.240, 178.661 303, 205.255 303 L 237.510 303 239.792 308.884 C 243.120 317.466, 247.562 323.613, 253.728 328.169 C 260.645 333.278, 267.819 336.523, 275.759 338.134 C 288.261 340.670, 303.589 335.798, 314.510 325.817 C 320.790 320.078, 323.798 315.341, 326.984 306.176 C 328.820 300.896, 329.117 298.254, 328.783 290.176 C 328.348 279.664, 326.189 272.561, 321.150 265.057 C 317.308 259.337, 306.951 251.203, 300.161 248.573 L 294.500 246.381 294.236 214.289 L 293.973 182.197 298.631 180.610 C 325.383 171.495, 336.843 140.134, 323.196 113.385 C 320.390 107.883, 308.935 97.401, 302.527 94.469 C 291.300 89.334, 275.193 89.167, 264.107 94.071 C 253.158 98.914, 243.753 108.902, 239.803 119.881 L 237.601 126 205.542 126 L 173.482 126 171.098 119.352 C 169.212 114.093, 167.277 111.192, 161.830 105.458 C 150.224 93.240, 137.963 88.949, 120.612 91.034" stroke="none" fill="#eb1334" fill-rule="evenodd"/></svg>