<svg width="92" height="66" viewBox="0 0 92 66" fill="none" xmlns="http://www.w3.org/2000/svg">
<g clip-path="url(#clip0_584_1931)">
<path d="M68.4746 23.441C68.472 22.9893 68.467 22.5378 68.4547 22.0855C68.4286 21.1017 68.3709 20.109 68.1974 19.1357C68.0214 18.1474 67.7337 17.2283 67.2802 16.3305C66.8351 15.4487 66.2532 14.6418 65.5591 13.9421C64.8651 13.2424 64.0647 12.6559 63.1896 12.207C62.2996 11.7504 61.3878 11.4604 60.4082 11.283C59.4422 11.1076 58.4574 11.0498 57.4807 11.0232C57.0323 11.011 56.5843 11.0058 56.1361 11.003C55.604 11 55.0715 11 54.5396 11H42.7445H37.8581C37.3257 11 36.7938 11 36.2619 11.0031C35.8135 11.0059 35.365 11.011 34.9172 11.0233C34.6731 11.0299 34.4284 11.0386 34.1836 11.0504C33.4493 11.0861 32.7138 11.1516 31.9897 11.2831C31.255 11.4162 30.5583 11.6125 29.8805 11.895C29.6546 11.9891 29.4307 12.0928 29.2082 12.207C28.5519 12.5437 27.9374 12.9577 27.3786 13.4389C27.1923 13.5993 27.0122 13.7671 26.8387 13.942C26.1444 14.6417 25.5625 15.4486 25.1174 16.3304C24.664 17.2282 24.3766 18.1473 24.2005 19.1357C24.0272 20.1089 23.9695 21.1016 23.9433 22.0854C23.931 22.5377 23.9258 22.9892 23.9229 23.4409C23.9195 23.9774 23.92 24.514 23.92 25.0504V32.3726V41.8659C23.92 42.4028 23.9194 42.9389 23.9229 43.4758C23.9258 43.9275 23.931 44.379 23.9433 44.8305C23.9695 45.8148 24.0271 46.8077 24.2005 47.7805C24.3766 48.7686 24.664 49.6885 25.1174 50.5861C25.5625 51.4681 26.1444 52.2748 26.8387 52.9742C27.5325 53.6742 28.3331 54.2606 29.2083 54.7099C30.0983 55.1665 31.0101 55.4561 31.9899 55.6335C32.9553 55.8087 33.9408 55.8669 34.9173 55.8932C35.365 55.9052 35.8135 55.9106 36.262 55.9132C36.7939 55.917 37.3257 55.9165 37.8582 55.9165H54.5396C55.0715 55.9165 55.604 55.917 56.136 55.9132C56.5843 55.9106 57.0322 55.9052 57.4807 55.8932C58.4573 55.8669 59.4421 55.8086 60.4081 55.6335C61.3877 55.4561 62.2996 55.1664 63.1895 54.7099C64.0646 54.2607 64.865 53.6742 65.559 52.9742C66.2531 52.2747 66.8351 51.4681 67.2802 50.5861C67.7336 49.6885 68.0213 48.7687 68.1973 47.7805C68.3708 46.8077 68.4285 45.8148 68.4546 44.8305C68.4669 44.379 68.4719 43.9276 68.4746 43.4758C68.478 42.9389 68.4777 42.4028 68.4777 41.8659V25.0504C68.4778 24.514 68.478 23.9774 68.4746 23.441Z" fill="white"/>
<path d="M59.227 38.726C59.226 38.7246 59.225 38.7236 59.2239 38.7223C59.2732 38.5532 59.324 38.3852 59.3672 38.2118C61.2165 30.7844 56.703 22.0032 49.0651 17.3796C52.4122 21.9536 53.8921 27.4937 52.5772 32.3386C52.46 32.7707 52.319 33.1855 52.1632 33.5886C51.9941 33.4766 51.781 33.3495 51.4948 33.1904C51.4948 33.1904 43.8972 28.4616 35.6625 20.0974C35.4465 19.8779 40.0536 26.7354 45.2821 32.3038C42.8188 30.9102 35.9537 25.8751 31.6077 21.8653C32.1416 22.763 32.7767 23.6273 33.4748 24.4595C37.1041 29.0992 41.8372 34.8239 47.5077 39.2198C43.5236 41.6776 37.8939 41.8687 32.2888 39.2224C30.9024 38.5674 29.599 37.7772 28.3926 36.8793C30.7652 40.705 34.4195 44.0057 38.867 45.9327C44.1709 48.2304 49.4452 48.0746 53.3735 45.9704L53.3704 45.9749C53.3883 45.9635 53.4111 45.951 53.4297 45.9394C53.591 45.852 53.7511 45.763 53.9077 45.669C55.7951 44.6814 59.5231 43.6795 61.5241 47.6042C62.0141 48.5646 63.0555 43.4745 59.227 38.726Z" fill="#181716"/>
</g>
<defs>
<clipPath id="clip0_584_1931">
<rect width="45.08" height="44.9167" fill="white" transform="translate(23.9199 11)"/>
</clipPath>
</defs>
</svg>
