<svg width="92" height="66" viewBox="0 0 92 66" fill="none" xmlns="http://www.w3.org/2000/svg">
<g clip-path="url(#clip0_584_1384)">
<path fill-rule="evenodd" clip-rule="evenodd" d="M36.7775 27.1134C33.3678 27.1134 30.6036 29.9541 30.6036 33.4583C30.6036 36.9626 33.3678 39.8033 36.7775 39.8033H43.1183V33.4583V27.1134H36.7775ZM52.2958 24.0266L52.4627 24.0266C55.8724 24.0266 58.6366 21.1859 58.6366 17.6817C58.6366 14.1775 55.8724 11.3367 52.4627 11.3367H46.1219V24.0266L52.2958 24.0266ZM57.4954 25.57C59.9918 23.8844 61.6401 20.9809 61.6401 17.6817C61.6401 12.4727 57.5312 8.25 52.4627 8.25H46.1219H44.6201H43.1183H36.7775C31.709 8.25 27.6001 12.4727 27.6001 17.6817C27.6001 20.9809 29.2484 23.8844 31.7448 25.57C29.2484 27.2556 27.6001 30.1592 27.6001 33.4583C27.6001 36.7575 29.2484 39.6611 31.7448 41.3467C29.2484 43.0323 27.6001 45.9358 27.6001 49.235C27.6001 54.4548 31.761 58.6667 36.819 58.6667C41.9231 58.6667 46.1219 54.4164 46.1219 49.1492V42.89V41.3467V40.4368C47.752 41.961 49.9183 42.89 52.2958 42.89H52.4627C57.5312 42.89 61.6401 38.6673 61.6401 33.4583C61.6401 30.1592 59.9918 27.2556 57.4954 25.57ZM52.4627 27.1134L52.2958 27.1134C48.886 27.1134 46.1219 29.9541 46.1219 33.4583C46.1219 36.9626 48.886 39.8033 52.2958 39.8033H52.4627C55.8724 39.8033 58.6366 36.9626 58.6366 33.4583C58.6366 29.9541 55.8724 27.1134 52.4627 27.1134ZM30.6036 49.235C30.6036 45.7308 33.3678 42.89 36.7775 42.89H43.1183V49.1492C43.1183 52.69 40.2854 55.5799 36.819 55.5799C33.3987 55.5799 30.6036 52.7284 30.6036 49.235ZM43.1183 24.0266H36.7775C33.3678 24.0266 30.6036 21.1859 30.6036 17.6817C30.6036 14.1775 33.3678 11.3367 36.7775 11.3367H43.1183V24.0266Z" fill="white"/>
</g>
<defs>
<clipPath id="clip0_584_1384">
<rect width="57.9586" height="50.4161" fill="white" transform="matrix(1 0 0 -1 16.5591 58.6665)"/>
</clipPath>
</defs>
</svg>
