<svg width="92" height="66" viewBox="0 0 92 66" fill="none" xmlns="http://www.w3.org/2000/svg">
<g clip-path="url(#clip0_584_3242)">
<path d="M60.2741 41.3652C59.7783 41.3652 59.2936 41.2166 58.8813 40.9383C58.4691 40.6599 58.1477 40.2643 57.958 39.8014C57.7683 39.3384 57.7186 38.8291 57.8153 38.3377C57.9121 37.8462 58.1508 37.3948 58.5014 37.0406C58.852 36.6863 59.2987 36.445 59.785 36.3472C60.2713 36.2495 60.7754 36.2997 61.2334 36.4914C61.6915 36.6831 62.083 37.0078 62.3585 37.4244C62.634 37.841 62.781 38.3308 62.781 38.8319C62.781 39.5038 62.5169 40.1481 62.0467 40.6232C61.5766 41.0983 60.9389 41.3652 60.2741 41.3652ZM32.6721 41.3652C32.1762 41.3652 31.6916 41.2166 31.2793 40.9383C30.867 40.6599 30.5457 40.2643 30.356 39.8014C30.1662 39.3384 30.1166 38.8291 30.2133 38.3377C30.3101 37.8462 30.5488 37.3948 30.8994 37.0406C31.25 36.6863 31.6967 36.445 32.183 36.3472C32.6693 36.2495 33.1733 36.2997 33.6314 36.4914C34.0895 36.6831 34.481 37.0078 34.7565 37.4244C35.0319 37.841 35.179 38.3308 35.179 38.8319C35.179 39.5038 34.9148 40.1481 34.4447 40.6232C33.9746 41.0983 33.3369 41.3652 32.6721 41.3652ZM61.1619 26.1652L66.1757 17.4305C66.2434 17.3109 66.287 17.179 66.304 17.0423C66.3211 16.9056 66.3112 16.7669 66.2751 16.634C66.2389 16.5012 66.1771 16.3769 66.0933 16.2683C66.0094 16.1597 65.9052 16.0689 65.7865 16.0011C65.6678 15.9333 65.5371 15.8899 65.4017 15.8733C65.2664 15.8567 65.1292 15.8674 64.9979 15.9045C64.8666 15.9417 64.7439 16.0048 64.6368 16.09C64.5298 16.1753 64.4404 16.2811 64.3739 16.4013L59.3079 25.2416C55.2843 23.3836 50.9099 22.4292 46.4861 22.4444C42.0572 22.4334 37.6769 23.3781 33.6383 25.2152L28.5722 16.3749C28.4365 16.1349 28.2122 15.959 27.9484 15.8856C27.6846 15.8123 27.4028 15.8475 27.1646 15.9835C26.9264 16.1196 26.7512 16.3454 26.6773 16.6116C26.6035 16.8778 26.6369 17.1628 26.7704 17.4041L31.7581 26.1388C27.4456 28.5156 23.7877 31.9418 21.1157 36.1073C18.4438 40.2727 16.842 45.0458 16.4556 49.9944H76.4383C76.0637 45.0493 74.4694 40.2777 71.801 36.1153C69.1325 31.9528 65.4749 28.532 61.1619 26.1652Z" fill="white"/>
</g>
<defs>
<clipPath id="clip0_584_3242">
<rect width="59.8" height="34.8333" fill="white" transform="translate(16.5601 15.5833)"/>
</clipPath>
</defs>
</svg>
