<svg width="92" height="66" viewBox="0 0 92 66" fill="none" xmlns="http://www.w3.org/2000/svg">
<path fill-rule="evenodd" clip-rule="evenodd" d="M23.684 45.9116H22.1847V26.0001H23.684V45.9116ZM22.913 21.1191C22.2807 21.1191 21.7578 20.6206 21.7578 19.9923C21.7578 19.3453 22.278 18.8442 22.913 18.8442C23.564 18.8442 24.0815 19.3427 24.0815 19.9923C24.0815 20.6206 23.564 21.1191 22.913 21.1191Z" fill="white"/>
<path fill-rule="evenodd" clip-rule="evenodd" d="M38.2471 46.2995C30.9157 46.2995 26.2842 40.994 26.2842 32.5604C26.2842 24.1689 30.9371 18.8425 38.2471 18.8425C45.5572 18.8425 50.2075 24.1692 50.2075 32.5604C50.2075 40.9944 45.5759 46.2995 38.2471 46.2995ZM38.2471 20.213C31.8656 20.213 27.7917 25.0012 27.7917 32.5601C27.7917 40.1245 31.8844 44.9313 38.2471 44.9313C44.6287 44.9313 48.7026 40.1245 48.7026 32.5601C48.7026 24.9986 44.6287 20.213 38.2471 20.213Z" fill="white"/>
<path fill-rule="evenodd" clip-rule="evenodd" d="M60.8843 46.2994C55.3804 46.2994 51.4345 43.2106 51.2104 38.7935H52.6805C52.9046 42.4154 56.3276 44.9499 60.9963 44.9499C65.5529 44.9499 68.7332 42.3781 68.7332 38.9048C68.7332 36.1103 66.8363 34.5035 62.3355 33.3767L59.1554 32.5998C54.1904 31.3404 51.936 29.344 51.936 26.0006C51.936 21.8406 55.8444 18.8447 60.7375 18.8447C65.7958 18.8447 69.5734 21.8036 69.7416 25.7224H68.2716C68.0662 22.5249 64.9235 20.1943 60.7 20.1943C56.6609 20.1943 53.4432 22.599 53.4432 25.9634C53.4432 28.628 55.4148 30.1606 59.7288 31.2317L62.7248 31.9899C67.9139 33.2652 70.2402 35.2458 70.2402 38.7932C70.2402 43.2102 66.5024 46.2992 60.8838 46.2992L60.8843 46.2994Z" fill="white"/>
</svg>
