<svg width="26" height="28" viewBox="0 0 26 28" fill="none" xmlns="http://www.w3.org/2000/svg">
<path d="M23.6668 26C23.6668 24.1392 23.6668 23.2089 23.4372 22.4518C22.9201 20.7473 21.5862 19.4134 19.8817 18.8963C19.1246 18.6667 18.1942 18.6667 16.3335 18.6667H9.66683C7.80608 18.6667 6.8757 18.6667 6.11864 18.8963C4.4141 19.4134 3.08022 20.7473 2.56315 22.4518C2.3335 23.2089 2.3335 24.1392 2.3335 26M19.0002 8C19.0002 11.3137 16.3139 14 13.0002 14C9.68645 14 7.00016 11.3137 7.00016 8C7.00016 4.68629 9.68645 2 13.0002 2C16.3139 2 19.0002 4.68629 19.0002 8Z" stroke="white" stroke-width="3" stroke-linecap="round" stroke-linejoin="round"/>
</svg>
