<svg width="48" height="24" viewBox="0 0 48 24" fill="none" xmlns="http://www.w3.org/2000/svg">
<path fill-rule="evenodd" clip-rule="evenodd" d="M30.8737 6.69863C30.7347 6.83941 30.7347 7.06548 30.8737 7.20627L37.6599 14.0705C39.1553 15.5835 39.1544 18.0197 37.6572 19.5314L33.2305 24H47.3994V0H37.4961L30.8737 6.69863ZM27.0626 0L20.3779 6.76225C20.2737 6.86739 20.2737 7.03706 20.3779 7.14265L29.4194 16.2888C29.6978 16.5704 29.6973 17.0234 29.4189 17.3045L22.7871 24H-0.115967V0H13.8296L9.66178 4.24028C8.16913 5.7587 8.17756 8.20125 9.68077 9.70974L21.7596 21.8282C21.8652 21.9342 22.0371 21.9342 22.1432 21.8282L26.9935 16.9616C27.0987 16.856 27.0987 16.685 26.9935 16.5794L17.8979 7.454C17.6186 7.17378 17.6168 6.72074 17.8943 6.43827L24.2229 0H27.0626Z" fill="#EB1434"/>
</svg>
