<?xml version="1.0" encoding="UTF-8"?>
<svg version="1.1" xmlns="http://www.w3.org/2000/svg" width="741" height="732">
<path d="M0 0 C19.16218347 16.87161025 32.32760654 40.24114555 34.22265625 66.0300293 C34.73706802 80.10207377 34.29979002 93.5273246 30 107 C29.68651611 107.98250732 29.68651611 107.98250732 29.36669922 108.98486328 C24.58372272 123.34095829 16.50207904 135.17507223 6 146 C5.40058594 146.67289063 4.80117188 147.34578125 4.18359375 148.0390625 C-11.39483131 164.92970911 -36.22755 175.04596293 -59 176 C-59.88300781 176.03996094 -60.76601563 176.07992187 -61.67578125 176.12109375 C-82.17048474 176.58256389 -99.80552626 170.73829219 -118 162 C-118.68513672 162.69037354 -119.37027344 163.38074707 -120.07617188 164.09204102 C-122.65295983 166.68712127 -125.23321362 169.27873292 -127.81445312 171.86938477 C-128.92475584 172.9846729 -130.03415429 174.10086211 -131.14257812 175.21801758 C-132.7488477 176.83660962 -134.35849442 178.45178072 -135.96875 180.06640625 C-136.69427063 180.79966881 -136.69427063 180.79966881 -137.43444824 181.54774475 C-140.14237666 184.25609937 -142.92349614 186.82472175 -145.82617188 189.32397461 C-150.36738069 193.26051672 -154.58751811 197.47917663 -158.8125 201.75 C-160.03223511 202.97541504 -160.03223511 202.97541504 -161.27661133 204.22558594 C-163.85353297 206.81462671 -166.42717625 209.40688737 -169 212 C-172.39287153 215.41962719 -175.78914657 218.83582149 -179.1875 222.25 C-179.95231689 223.02311523 -180.71713379 223.79623047 -181.50512695 224.59277344 C-185.53882488 228.64461526 -189.6654055 232.49124842 -193.99658203 236.22143555 C-197.6864191 239.49714394 -201.12551436 243.02427573 -204.59375 246.53125 C-205.38471069 247.32599731 -206.17567139 248.12074463 -206.99060059 248.9395752 C-209.49619523 251.45728432 -211.99850858 253.97821446 -214.5 256.5 C-217.7991168 259.82588189 -221.10164374 263.14832336 -224.40625 266.46875 C-225.52066467 267.59561218 -225.52066467 267.59561218 -226.65759277 268.74523926 C-230.73205908 272.8385465 -234.89562494 276.75327546 -239.28356934 280.50965881 C-241.6308993 282.5477968 -243.81962183 284.72305342 -246 286.9375 C-247.1446875 288.09572266 -247.1446875 288.09572266 -248.3125 289.27734375 C-248.869375 289.84582031 -249.42625 290.41429687 -250 291 C-248.91716296 293.74318717 -247.80029126 296.46332427 -246.6328125 299.171875 C-236.75284159 322.61760909 -233.78278388 348.47634567 -242 373 C-242.31348389 373.95471191 -242.31348389 373.95471191 -242.63330078 374.92871094 C-247.47351557 389.32245829 -255.44948359 401.12514584 -266 412 C-266.59941406 412.67289063 -267.19882812 413.34578125 -267.81640625 414.0390625 C-283.53848442 431.08546259 -307.78330972 440.51101001 -330.61328125 441.91015625 C-331.79470703 441.95462891 -331.79470703 441.95462891 -333 442 C-333.69480469 442.03996094 -334.38960938 442.07992188 -335.10546875 442.12109375 C-363.24088003 443.01847085 -388.92017837 431.18500765 -409.1875 412.25 C-428.79466559 391.61087832 -437.5828443 365.42627246 -437.2109375 337.2734375 C-436.50945441 313.43167258 -426.88404103 291.63374607 -411 274 C-410.30261719 273.22011719 -409.60523438 272.44023438 -408.88671875 271.63671875 C-391.44070074 253.17009274 -366.40409704 243.05782604 -341.28515625 241.81640625 C-320.69697053 241.45521001 -303.17861212 246.93681263 -285 256 C-284.2265625 255.21496094 -283.453125 254.42992187 -282.65625 253.62109375 C-281.60430616 252.55975756 -280.5522148 251.49856757 -279.5 250.4375 C-278.9946875 249.92380859 -278.489375 249.41011719 -277.96875 248.88085938 C-275.18403002 246.0787349 -272.34264294 243.40571284 -269.33789062 240.84008789 C-264.74863716 236.84131601 -260.46676538 232.57569584 -256.1875 228.25 C-255.37434326 227.43305664 -254.56118652 226.61611328 -253.72338867 225.77441406 C-251.14646703 223.18537329 -248.57282375 220.59311263 -246 218 C-242.60712847 214.58037281 -239.21085343 211.16417851 -235.8125 207.75 C-235.04768311 206.97688477 -234.28286621 206.20376953 -233.49487305 205.40722656 C-229.46117512 201.35538474 -225.3345945 197.50875158 -221.00341797 193.77856445 C-217.3135809 190.50285606 -213.87448564 186.97572427 -210.40625 183.46875 C-209.61528931 182.67400269 -208.82432861 181.87925537 -208.00939941 181.0604248 C-205.50380477 178.54271568 -203.00149142 176.02178554 -200.5 173.5 C-197.2008832 170.17411811 -193.89835626 166.85167664 -190.59375 163.53125 C-189.85080688 162.78000854 -189.10786377 162.02876709 -188.34240723 161.25476074 C-184.29856632 157.19222052 -180.15679596 153.32774772 -175.81408691 149.58700562 C-173.3134758 147.39941259 -170.96648295 145.07877347 -168.625 142.72265625 C-167.70332031 141.79775391 -166.78164063 140.87285156 -165.83203125 139.91992188 C-164.88796393 138.96750432 -163.94395418 138.01502969 -163 137.0625 C-162.02497614 136.0824469 -161.0497172 135.1026276 -160.07421875 134.12304688 C-157.71383382 131.75097687 -155.35583095 129.3765914 -153 127 C-154.46438331 122.53043724 -156.12628234 118.21639194 -157.9375 113.875 C-168.0895608 88.98567968 -167.71877219 61.51061123 -157.58984375 36.6796875 C-147.09744506 11.99690531 -127.53666365 -6.49925067 -103 -17 C-68.09821229 -30.65335905 -28.66779407 -24.17810103 0 0 Z " fill="#EA1333" transform="translate(707,290)"/>
<path d="M0 0 C2.47664813 2.19648432 4.88506516 4.44665404 7.27734375 6.734375 C7.8909375 7.28480469 8.50453125 7.83523437 9.13671875 8.40234375 C24.72899156 22.88599166 35.10967093 46.38016881 36.4543457 67.51660156 C37.09638479 97.46478342 31.53902136 122.93984764 10.4921875 145.42578125 C9.39583984 146.56853516 9.39583984 146.56853516 8.27734375 147.734375 C7.61863281 148.44464844 6.95992187 149.15492188 6.28125 149.88671875 C-11.45630476 168.48081539 -37.73743261 177.40325612 -62.97265625 178.046875 C-82.20215928 177.7273817 -98.47517035 171.78750623 -115.72265625 163.734375 C-116.52896484 164.54592041 -117.33527344 165.35746582 -118.16601562 166.19360352 C-121.19008955 169.23593009 -124.21759687 172.27482091 -127.24609375 175.31274414 C-128.55040209 176.62204674 -129.85380733 177.93224969 -131.15625 179.2434082 C-133.04053376 181.13997448 -134.92816236 183.03315863 -136.81640625 184.92578125 C-137.38758179 185.50211807 -137.95875732 186.0784549 -138.54724121 186.67225647 C-141.48160882 189.60701988 -144.47253827 192.41758198 -147.6171875 195.12670898 C-152.0599909 198.97092251 -156.18686946 203.08996315 -160.31640625 207.265625 C-161.10736694 208.06037231 -161.89832764 208.85511963 -162.71325684 209.6739502 C-165.21885148 212.19165932 -167.72116483 214.71258946 -170.22265625 217.234375 C-173.52177305 220.56025689 -176.82429999 223.88269836 -180.12890625 227.203125 C-180.87184937 227.95436646 -181.61479248 228.70560791 -182.38024902 229.47961426 C-186.36025898 233.47802836 -190.43865172 237.26634336 -194.71154785 240.94812012 C-198.40334594 244.22715389 -201.84557491 247.75602604 -205.31640625 251.265625 C-206.10736694 252.06037231 -206.89832764 252.85511963 -207.71325684 253.6739502 C-210.21885148 256.19165932 -212.72116483 258.71258946 -215.22265625 261.234375 C-218.52177305 264.56025689 -221.82429999 267.88269836 -225.12890625 271.203125 C-226.24332092 272.32998718 -226.24332092 272.32998718 -227.38024902 273.47961426 C-231.43026613 277.54835924 -235.56557816 281.44017154 -239.9329834 285.1673584 C-242.66627587 287.56059729 -245.1863605 290.13467185 -247.72265625 292.734375 C-246.57682184 296.5885453 -245.0826526 300.12024414 -243.34765625 303.734375 C-233.37531215 325.30178192 -232.17965279 352.22285688 -239.72265625 374.734375 C-240.03614014 375.68908691 -240.03614014 375.68908691 -240.35595703 376.66308594 C-245.19617182 391.05683329 -253.17213984 402.85952084 -263.72265625 413.734375 C-264.32207031 414.40726562 -264.92148437 415.08015625 -265.5390625 415.7734375 C-281.11748756 432.66408411 -305.95020625 442.78033793 -328.72265625 443.734375 C-329.60566406 443.77433594 -330.48867188 443.81429688 -331.3984375 443.85546875 C-360.96769766 444.52126666 -386.28825137 433.39322129 -407.53515625 413.359375 C-420.09288194 400.22027312 -428.72153187 383.38143938 -432.72265625 365.734375 C-433.05910156 364.33058594 -433.05910156 364.33058594 -433.40234375 362.8984375 C-438.62305612 337.36700853 -432.79252514 310.452318 -418.79296875 288.734375 C-403.05495125 265.92909681 -380.973228 250.75766595 -353.70019531 245.33203125 C-329.04122524 240.97972915 -304.54852923 245.61484848 -282.72265625 257.734375 C-282.16578125 257.16589844 -281.60890625 256.59742188 -281.03515625 256.01171875 C-279.89046875 254.85349609 -279.89046875 254.85349609 -278.72265625 253.671875 C-277.98015625 252.91777344 -277.23765625 252.16367187 -276.47265625 251.38671875 C-274.3857159 249.37388849 -272.28680232 247.48422687 -270.08789062 245.60180664 C-265.56881837 241.65939619 -261.34431093 237.46561385 -257.12890625 233.203125 C-256.33794556 232.40837769 -255.54698486 231.61363037 -254.73205566 230.7947998 C-252.22646102 228.27709068 -249.72414767 225.75616054 -247.22265625 223.234375 C-243.92353945 219.90849311 -240.62101251 216.58605164 -237.31640625 213.265625 C-236.57346313 212.51438354 -235.83052002 211.76314209 -235.06506348 210.98913574 C-231.08505352 206.99072164 -227.00666078 203.20240664 -222.73376465 199.52062988 C-219.04196656 196.24159611 -215.59973759 192.71272396 -212.12890625 189.203125 C-211.33794556 188.40837769 -210.54698486 187.61363037 -209.73205566 186.7947998 C-207.22646102 184.27709068 -204.72414767 181.75616054 -202.22265625 179.234375 C-198.92353945 175.90849311 -195.62101251 172.58605164 -192.31640625 169.265625 C-191.57346313 168.51438354 -190.83052002 167.76314209 -190.06506348 166.98913574 C-186.03858536 162.9440386 -181.91420672 159.09979963 -177.5904541 155.37509155 C-174.76554303 152.89362475 -172.11689312 150.25326356 -169.47265625 147.58203125 C-168.92907471 147.03703476 -168.38549316 146.49203827 -167.82543945 145.93052673 C-166.1221081 144.22168283 -164.42232299 142.50936303 -162.72265625 140.796875 C-161.55492251 139.62411491 -160.38695551 138.45158702 -159.21875 137.27929688 C-156.38402391 134.43365811 -153.55246801 131.58490047 -150.72265625 128.734375 C-152.18703956 124.26481224 -153.84893859 119.95076694 -155.66015625 115.609375 C-165.73616303 90.90651267 -165.5499553 63.29996226 -155.44921875 38.62109375 C-144.70281123 13.75065927 -125.32473667 -4.4081155 -100.72265625 -15.265625 C-67.41243496 -28.32257139 -27.69345462 -23.04476855 0 0 Z " fill="#EA1333" transform="translate(704.72265625,22.265625)"/>
<path d="M0 0 C2.49068714 2.20592871 4.90757192 4.47076299 7.3125 6.76953125 C8.34310547 7.68798828 8.34310547 7.68798828 9.39453125 8.625 C24.61721019 22.70672865 35.26194863 46.07245008 36.48950195 66.7512207 C36.77365332 81.27237427 36.95792789 94.90560627 32.3125 108.76953125 C31.99901611 109.72424316 31.99901611 109.72424316 31.67919922 110.69824219 C23.02301797 136.43984486 4.06291425 156.37030744 -20.0625 168.4609375 C-31.13024389 173.47915319 -43.46497451 177.28547083 -55.6875 177.76953125 C-56.75742187 177.82109375 -57.82734375 177.87265625 -58.9296875 177.92578125 C-76.76195029 178.37818538 -93.64073528 174.72588409 -109.4375 166.33203125 C-112.36167877 164.6145093 -112.36167877 164.6145093 -114.51533508 164.83930969 C-117.80724279 166.24905694 -120.14143833 168.64480117 -122.69213867 171.09057617 C-123.26366511 171.62887401 -123.83519156 172.16717184 -124.42403698 172.72178173 C-129.73395702 177.74929602 -134.92839009 182.89237836 -140.07726479 188.08413124 C-141.66999784 189.68999673 -143.26615765 191.29239257 -144.86308289 192.89408875 C-148.24495052 196.28719412 -151.62278255 199.68429827 -155 203.08203125 C-158.93928578 207.0451109 -162.88031352 211.00642836 -166.8255825 214.96355247 C-168.38292369 216.52727921 -169.93717805 218.09402712 -171.49128723 219.66096497 C-175.44428707 223.63422658 -179.38527174 227.58395848 -183.64697266 231.22900391 C-188.67472798 235.53609339 -193.28984021 240.26051479 -197.94957161 244.95643806 C-199.63413655 246.65394814 -201.32196436 248.3481554 -203.01060486 250.04161072 C-206.59324754 253.63559137 -210.17192084 257.23350799 -213.75 260.83203125 C-217.90460003 265.01034396 -222.06087174 269.18696574 -226.22140312 273.35937309 C-227.87349124 275.01788004 -229.52250704 276.679399 -231.17140198 278.34107971 C-236.17385195 283.36760518 -241.19913651 288.26627108 -246.6875 292.76953125 C-246.15640625 293.88328125 -245.6253125 294.99703125 -245.078125 296.14453125 C-232.53296627 323.02870857 -229.47819878 351.55967376 -239.70800781 379.83789062 C-247.4642339 399.71127313 -261.18004694 415.89124511 -278.6875 427.76953125 C-279.80511719 428.55650391 -279.80511719 428.55650391 -280.9453125 429.359375 C-291.45566763 436.26251766 -305.19952625 441.24496713 -317.6875 442.76953125 C-318.47769531 442.8778125 -319.26789063 442.98609375 -320.08203125 443.09765625 C-347.24530084 446.34869324 -374.03597362 439.21142257 -395.6484375 422.33203125 C-415.76477345 405.370185 -428.80990235 384.19756751 -432.6875 357.76953125 C-433.5967089 342.45343697 -433.58931431 327.39862193 -428.6875 312.76953125 C-428.47851074 312.13305664 -428.26952148 311.49658203 -428.05419922 310.84082031 C-423.21398443 296.44707296 -415.23801641 284.64438541 -404.6875 273.76953125 C-404.08808594 273.09664063 -403.48867188 272.42375 -402.87109375 271.73046875 C-387.29266869 254.83982214 -362.45995 244.72356832 -339.6875 243.76953125 C-338.80449219 243.72957031 -337.92148437 243.68960937 -337.01171875 243.6484375 C-319.34951164 243.25074542 -301.55484805 246.82646938 -286.203125 255.73046875 C-283.03362523 257.03960996 -281.93291521 256.84753181 -278.6875 255.76953125 C-276.60826125 254.0489817 -274.79041855 252.36889971 -272.92260742 250.44287109 C-272.36902054 249.88826202 -271.81543365 249.33365295 -271.24507141 248.76223755 C-269.41819868 246.92748559 -267.60580491 245.07908193 -265.79296875 243.23046875 C-264.5198575 241.94734791 -263.2457791 240.66518603 -261.97077942 239.38394165 C-258.61307361 236.00529578 -255.26709736 232.61527478 -251.92388916 229.22229004 C-246.58713265 223.8103366 -241.23187423 218.41667801 -235.87838173 213.02128983 C-234.0186116 211.14397151 -232.16322749 209.26241064 -230.30863953 207.37997437 C-225.25591531 202.26319475 -220.21505539 197.25113033 -214.7348175 192.58828735 C-210.4603381 188.79100848 -206.48196373 184.67052519 -202.45599365 180.6131897 C-200.7753576 178.91960263 -199.09145371 177.22932348 -197.40673828 175.53979492 C-193.83081463 171.95253312 -190.25885568 168.36134005 -186.6875 164.76953125 C-182.54370177 160.60200152 -178.39822339 156.4361715 -174.24847412 152.27456665 C-172.60251894 150.62220593 -170.95964355 148.9668266 -169.31689453 147.3112793 C-164.4702418 142.44200968 -159.61326872 137.65984037 -154.31298828 133.27612305 C-152.50071298 131.59640679 -151.11425235 129.78168047 -149.6875 127.76953125 C-150.13480469 126.97933594 -150.58210938 126.18914062 -151.04296875 125.375 C-163.94138495 101.31079067 -166.00643026 73.93721343 -158.6875 47.76953125 C-154.14879865 32.93855678 -145.88612525 20.33170897 -135.6875 8.76953125 C-134.87925781 7.83560547 -134.87925781 7.83560547 -134.0546875 6.8828125 C-100.01635634 -29.80674546 -37.69583901 -31.28535476 0 0 Z " fill="#EA1333" transform="translate(432.6875,22.23046875)"/>
<path d="M0 0 C19.95154046 17.18861076 33.93705738 38.8734234 36.93359375 65.52734375 C38.37679967 85.18589259 36.68357695 103.68615237 27.93359375 121.52734375 C27.16208984 123.12835937 27.16208984 123.12835937 26.375 124.76171875 C22.42828121 132.52754878 17.77300551 139.07770407 11.93359375 145.52734375 C11.11117187 146.44386719 10.28875 147.36039063 9.44140625 148.3046875 C-8.13462658 166.89773114 -32.50979895 177.56531107 -58.06640625 178.52734375 C-58.76121094 178.56730469 -59.45601562 178.60726562 -60.171875 178.6484375 C-85.40191094 179.45314784 -110.87381089 170.09105208 -129.41015625 153.0390625 C-130.28671875 152.21019531 -131.16328125 151.38132812 -132.06640625 150.52734375 C-133.071875 149.63982422 -133.071875 149.63982422 -134.09765625 148.734375 C-147.05694977 136.80593437 -155.94739648 118.41528382 -160.06640625 101.52734375 C-160.29070313 100.63660156 -160.515 99.74585938 -160.74609375 98.828125 C-165.98814024 73.65912095 -160.82589199 46.15853529 -147.06640625 24.52734375 C-131.17415282 0.96941513 -108.86783217 -14.02520424 -81.30444336 -20.05102539 C-52.883573 -25.40532266 -22.63697605 -17.96829171 0 0 Z " fill="#000000" transform="translate(704.06640625,553.47265625)"/>
<path d="M0 0 C26.90001784 -0.68245288 51.71550893 8.10264012 71.7578125 26.15625 C72.53769531 26.85363281 73.31757813 27.55101562 74.12109375 28.26953125 C92.92533538 46.03450564 103.27689137 71.58399854 104.09423828 97.18066406 C104.51322611 124.74900256 94.98745871 148.48930677 76.7578125 169.15625 C76.21898437 169.77886719 75.68015625 170.40148437 75.125 171.04296875 C57.36595198 190.1852592 31.64763189 198.37839995 6.34375 200.34375 C-20.94424073 201.1866223 -46.49546845 190.10625495 -66.1940918 171.65405273 C-78.10073006 160.10532597 -85.9315144 146.81276681 -91.2421875 131.15625 C-91.57887451 130.18776123 -91.57887451 130.18776123 -91.92236328 129.19970703 C-98.16258861 110.4215616 -97.49705986 87.82343915 -91.2421875 69.15625 C-91.03319824 68.51977539 -90.82420898 67.88330078 -90.60888672 67.22753906 C-81.95270547 41.48593639 -62.99260175 21.55547381 -38.8671875 9.46484375 C-26.47780752 3.84738624 -13.57136548 0.65404171 0 0 Z " fill="#000000" transform="translate(95.2421875,531.84375)"/>
<path d="M0 0 C28.13541128 -0.8973771 53.81470962 10.9360861 74.08203125 29.87109375 C93.68919684 50.51021543 102.47737555 76.69482129 102.10546875 104.84765625 C101.40398566 128.68942117 91.77857228 150.48734768 75.89453125 168.12109375 C75.19714844 168.90097656 74.49976563 169.68085938 73.78125 170.484375 C56.33523199 188.95100101 31.29862829 199.06326771 6.1796875 200.3046875 C-19.02771056 200.74692255 -42.46643334 192.9163048 -62.10546875 177.12109375 C-63.12640625 176.34572266 -63.12640625 176.34572266 -64.16796875 175.5546875 C-82.37901811 160.90507319 -93.96528639 136.99148241 -97.10546875 114.12109375 C-98.16469184 98.94046888 -98.16768259 83.59378732 -93.10546875 69.12109375 C-92.85877441 68.40920898 -92.61208008 67.69732422 -92.35791016 66.96386719 C-87.22798529 52.61015478 -79.64907525 41.15248275 -69.10546875 30.12109375 C-68.50476563 29.445625 -67.9040625 28.77015625 -67.28515625 28.07421875 C-51.54494835 11.03936172 -27.33118154 1.61063669 -4.4921875 0.2109375 C-2.99420272 0.15454855 -1.49657256 0.08607375 0 0 Z " fill="#000000" transform="translate(97.10546875,-0.12109375)"/>
</svg>
